STARTFONT 2.1
COMMENT DesignerURL: www.linotype.com
COMMENT VendorURL: www.linotype.com
FONT -Linotype Library GmbH-HelveticaNeue LT 57 Cn-Normal-R-medium-Regular-18-180-72-72-P-78--
SIZE 18 72 72
FONTBOUNDINGBOX 25 19 -3 -4
STARTPROPERTIES 520
FAMILY_NAME "HelveticaNeue LT 57 Cn"
DEFAULT_CHAR -1
FOUNDRY "Linotype Library GmbH"
COPYRIGHT "Copyright (c) 2005,Linotype Library GmbH, www.linotype.com. All rights reserved. This software may not be reproduced, used, displayed, modified, disclosed written approval of Linotype Library GmbH."
NOTICE "Copyright (c) 2005,Linotype Library GmbH, www.linotype.com. All rights reserved. The digitally encoded machine readable outline data for producing the Typefaces provided as part of your laser printer is copyrighted (c)Heidelberger Druckmaschinen AG. All rights reserved."
CODEPAGE "MacOS Roman"
TRADEMARK "Neue Helvetica is a Trademark of Heidelberger Druckmaschinen AG which may be registered in certain jurisdictions, exclusively licensed through Linotype Library GmbH, a wholly owned subsidiary of Heidelberger Druckmaschinen AG."
CREATION_YEAR 2005
PCL_CHARSET " 9U"
WEIGHT_NAME "Normal"
SLANT "R"
SETWIDTH_NAME "medium"
ADD_STYLE_NAME "Regular"
SPACING "P"
FACE_NAME "Helvetica LT 57 Condensed"
RELATIVE_SETWIDTH 100
RELATIVE_WEIGHT 40
VERSION "Version 7.01; 2004"
HI_VERSION 7
LO_VERSION 1
UNIQUE_FONT_ID "LinotypeLibraryGmbH: Helvetica LT 57 Condensed: 2005"
VENDOR "LINO"
MENU_NAME "HelveticaNeue LT 57 Cn"
FONT_NAME "HelveticaNeueLT-Condensed"
FONTNAME_REGISTRY "-"
BREAK_CHAR 32
PIXEL_SIZE 18
POINT_SIZE 180
FONT_ASCENT 16
FONT_DESCENT 3
RESOLUTION_X 72
RESOLUTION_Y 72
AVERAGE_WIDTH 78
UNDERLINE_THICKNESS 1
X_HEIGHT 9
CAP_HEIGHT 12
KERNING_PAIR "U002f U2019 -1"
KERNING_PAIR "U002f U201d -1"
KERNING_PAIR "U0043 U0051 0"
KERNING_PAIR "U0043 U0054 -1"
KERNING_PAIR "U0043 U0056 0"
KERNING_PAIR "U0043 U0057 0"
KERNING_PAIR "U0043 U0059 -1"
KERNING_PAIR "U0043 U0070 0"
KERNING_PAIR "U0043 U2019 -1"
KERNING_PAIR "U0043 U201d -1"

STARTCHAR .notdef
ENCODING 0
SWIDTH 500 0
DWIDTH 9 0
BBX 7 15 1 0
BITMAP
FE
FE
82
82
82
82
82
82
82
82
82
82
82
82
FE
ENDCHAR
STARTCHAR space
ENCODING 32
SWIDTH 240 0
DWIDTH 4 0
BBX 0 0 0 0
BITMAP
ENDCHAR
STARTCHAR caron
ENCODING 711
SWIDTH 389 0
DWIDTH 7 0
BBX 6 3 0 13
BITMAP
CC
78
30
ENDCHAR
STARTCHAR dotlessi
ENCODING 305
SWIDTH 167 0
DWIDTH 3 0
BBX 2 10 0 0
BITMAP
C0
C0
C0
C0
C0
C0
C0
C0
C0
C0
ENDCHAR
STARTCHAR dotaccent
ENCODING 729
SWIDTH 204 0
DWIDTH 3 0
BBX 2 2 0 13
BITMAP
C0
C0
ENDCHAR
STARTCHAR hungarumlaut
ENCODING 733
SWIDTH 389 0
DWIDTH 7 0
BBX 6 3 0 13
BITMAP
6C
48
D8
ENDCHAR
STARTCHAR ring
ENCODING 730
SWIDTH 333 0
DWIDTH 6 0
BBX 5 5 0 11
BITMAP
70
D8
88
D8
70
ENDCHAR
STARTCHAR ogonek
ENCODING 731
SWIDTH 278 0
DWIDTH 5 0
BBX 4 3 0 -3
BITMAP
C0
C0
F0
ENDCHAR
STARTCHAR breve
ENCODING 728
SWIDTH 444 0
DWIDTH 8 0
BBX 7 3 0 13
BITMAP
C6
6C
38
ENDCHAR
STARTCHAR exclam
ENCODING 33
SWIDTH 167 0
DWIDTH 3 0
BBX 2 12 0 0
BITMAP
C0
C0
C0
C0
C0
C0
C0
C0
C0
00
C0
C0
ENDCHAR
STARTCHAR quotedbl
ENCODING 34
SWIDTH 389 0
DWIDTH 7 0
BBX 6 5 0 8
BITMAP
CC
CC
CC
CC
CC
ENDCHAR
STARTCHAR numbersign
ENCODING 35
SWIDTH 611 0
DWIDTH 11 0
BBX 10 12 0 0
BITMAP
3300
3300
3300
FFC0
3300
3300
3300
FFC0
3300
3300
3300
3300
ENDCHAR
STARTCHAR dollar
ENCODING 36
SWIDTH 444 0
DWIDTH 8 0
BBX 7 16 0 -2
BITMAP
10
10
7C
D6
D6
D0
70
38
1C
16
16
D6
D6
7C
10
10
ENDCHAR
STARTCHAR percent
ENCODING 37
SWIDTH 759 0
DWIDTH 16 0
BBX 15 13 0 0
BITMAP
7860
CC60
CCC0
CCC0
CD80
CD80
7B3C
0366
0666
0666
0C66
0C66
183C
ENDCHAR
STARTCHAR ampersand
ENCODING 38
SWIDTH 611 0
DWIDTH 11 0
BBX 10 13 0 0
BITMAP
1E00
3700
6300
6300
3600
1C00
3C00
6640
C3C0
C380
C300
E780
7EC0
ENDCHAR
STARTCHAR quotesingle
ENCODING 39
SWIDTH 167 0
DWIDTH 3 0
BBX 2 5 0 8
BITMAP
C0
C0
C0
C0
C0
ENDCHAR
STARTCHAR parenleft
ENCODING 40
SWIDTH 278 0
DWIDTH 5 0
BBX 4 17 0 -3
BITMAP
10
30
20
60
60
C0
C0
C0
C0
C0
C0
C0
60
60
20
30
10
ENDCHAR
STARTCHAR parenright
ENCODING 41
SWIDTH 278 0
DWIDTH 5 0
BBX 4 17 0 -3
BITMAP
80
C0
40
60
60
30
30
30
30
30
30
30
60
60
40
C0
80
ENDCHAR
STARTCHAR asterisk
ENCODING 42
SWIDTH 333 0
DWIDTH 6 0
BBX 5 5 0 8
BITMAP
A8
70
F8
70
A8
ENDCHAR
STARTCHAR plus
ENCODING 43
SWIDTH 500 0
DWIDTH 9 0
BBX 8 8 0 1
BITMAP
18
18
18
FF
FF
18
18
18
ENDCHAR
STARTCHAR comma
ENCODING 44
SWIDTH 167 0
DWIDTH 3 0
BBX 2 5 0 -3
BITMAP
C0
C0
40
40
80
ENDCHAR
STARTCHAR period
ENCODING 46
SWIDTH 167 0
DWIDTH 3 0
BBX 2 2 0 0
BITMAP
C0
C0
ENDCHAR
STARTCHAR slash
ENCODING 47
SWIDTH 389 0
DWIDTH 7 0
BBX 6 13 0 0
BITMAP
0C
18
18
18
18
30
30
30
70
60
60
60
C0
ENDCHAR
STARTCHAR zero
ENCODING 48
SWIDTH 444 0
DWIDTH 8 0
BBX 7 12 0 0
BITMAP
7C
C6
C6
C6
C6
C6
C6
C6
C6
C6
C6
7C
ENDCHAR
STARTCHAR one
ENCODING 49
SWIDTH 333 0
DWIDTH 6 0
BBX 4 12 0 0
BITMAP
30
F0
30
30
30
30
30
30
30
30
30
30
ENDCHAR
STARTCHAR two
ENCODING 50
SWIDTH 444 0
DWIDTH 8 0
BBX 7 12 0 0
BITMAP
FC
C6
06
06
06
0C
18
30
60
C0
C6
FE
ENDCHAR
STARTCHAR three
ENCODING 51
SWIDTH 444 0
DWIDTH 8 0
BBX 7 12 0 0
BITMAP
7C
C6
86
06
06
3C
06
06
06
86
C6
7C
ENDCHAR
STARTCHAR four
ENCODING 52
SWIDTH 444 0
DWIDTH 8 0
BBX 7 12 0 0
BITMAP
0C
1C
1C
2C
2C
4C
4C
8C
FE
0C
0C
0C
ENDCHAR
STARTCHAR five
ENCODING 53
SWIDTH 444 0
DWIDTH 8 0
BBX 7 12 0 0
BITMAP
FE
C6
C0
C0
C0
FC
06
06
06
C6
C6
7C
ENDCHAR
STARTCHAR six
ENCODING 54
SWIDTH 444 0
DWIDTH 8 0
BBX 7 12 0 0
BITMAP
7C
C6
C0
C0
C0
FC
C6
C6
C6
C6
C6
7C
ENDCHAR
STARTCHAR seven
ENCODING 55
SWIDTH 444 0
DWIDTH 8 0
BBX 7 12 0 0
BITMAP
FE
06
0C
08
18
10
30
30
60
60
60
60
ENDCHAR
STARTCHAR eight
ENCODING 56
SWIDTH 444 0
DWIDTH 8 0
BBX 7 12 0 0
BITMAP
7C
C6
C6
C6
44
7C
C6
C6
C6
C6
C6
7C
ENDCHAR
STARTCHAR nine
ENCODING 57
SWIDTH 480 0
DWIDTH 8 0
BBX 7 12 0 0
BITMAP
7C
C6
C6
C6
C6
C6
7E
06
06
06
C6
7C
ENDCHAR
STARTCHAR colon
ENCODING 58
SWIDTH 240 0
DWIDTH 4 0
BBX 2 9 1 0
BITMAP
C0
C0
00
00
00
00
00
C0
C0
ENDCHAR
STARTCHAR semicolon
ENCODING 59
SWIDTH 240 0
DWIDTH 4 0
BBX 2 12 1 -3
BITMAP
C0
C0
00
00
00
00
00
C0
C0
40
40
80
ENDCHAR
STARTCHAR less
ENCODING 60
SWIDTH 556 0
DWIDTH 10 0
BBX 9 9 0 0
BITMAP
0380
0E00
3800
6000
C000
6000
3800
0E00
0380
ENDCHAR
STARTCHAR equal
ENCODING 61
SWIDTH 611 0
DWIDTH 11 0
BBX 9 6 1 2
BITMAP
FF80
FF80
0000
0000
FF80
FF80
ENDCHAR
STARTCHAR greater
ENCODING 62
SWIDTH 600 0
DWIDTH 10 0
BBX 9 9 0 0
BITMAP
E000
3800
0E00
0300
0180
0300
0E00
3800
E000
ENDCHAR
STARTCHAR question
ENCODING 63
SWIDTH 444 0
DWIDTH 8 0
BBX 7 13 0 0
BITMAP
7C
EE
C6
C6
06
0C
18
30
30
30
00
30
30
ENDCHAR
STARTCHAR at
ENCODING 64
SWIDTH 778 0
DWIDTH 14 0
BBX 13 13 0 -1
BITMAP
1FC0
2020
4F90
98C8
80C8
8FC8
98C8
98C8
98C8
99C8
4FB0
2000
1FC0
ENDCHAR
STARTCHAR A
ENCODING 65
SWIDTH 444 0
DWIDTH 8 0
BBX 7 12 0 0
BITMAP
38
6C
6C
C6
C6
C6
C6
FE
C6
C6
C6
C6
ENDCHAR
STARTCHAR B
ENCODING 66
SWIDTH 444 0
DWIDTH 8 0
BBX 7 12 0 0
BITMAP
F8
CC
C6
C6
CC
F8
CC
C6
C6
C6
CC
F8
ENDCHAR
STARTCHAR C
ENCODING 67
SWIDTH 444 0
DWIDTH 8 0
BBX 7 12 0 0
BITMAP
3C
66
C6
C0
C0
C0
C0
C0
C0
C6
66
3C
ENDCHAR
STARTCHAR D
ENCODING 68
SWIDTH 500 0
DWIDTH 9 0
BBX 7 12 0 0
BITMAP
F8
CC
C6
C6
C6
C6
C6
C6
C6
C6
CC
F8
ENDCHAR
STARTCHAR E
ENCODING 69
SWIDTH 444 0
DWIDTH 8 0
BBX 7 12 0 0
BITMAP
FE
C0
C0
C0
C0
FC
C0
C0
C0
C0
C0
FE
ENDCHAR
STARTCHAR F
ENCODING 70
SWIDTH 444 0
DWIDTH 8 0
BBX 7 12 0 0
BITMAP
FE
C0
C0
C0
C0
FC
C0
C0
C0
C0
C0
C0
ENDCHAR
STARTCHAR G
ENCODING 71
SWIDTH 500 0
DWIDTH 9 0
BBX 8 12 0 0
BITMAP
3E
63
C3
C0
C0
C0
CF
C3
C3
C3
67
3E
ENDCHAR
STARTCHAR H
ENCODING 72
SWIDTH 500 0
DWIDTH 9 0
BBX 8 12 0 0
BITMAP
C3
C3
C3
C3
C3
FF
C3
C3
C3
C3
C3
C3
ENDCHAR
STARTCHAR I
ENCODING 73
SWIDTH 167 0
DWIDTH 3 0
BBX 2 12 0 0
BITMAP
C0
C0
C0
C0
C0
C0
C0
C0
C0
C0
C0
C0
ENDCHAR
STARTCHAR J
ENCODING 74
SWIDTH 444 0
DWIDTH 8 0
BBX 7 12 0 0
BITMAP
06
06
06
06
06
06
06
06
C6
C6
C6
7C
ENDCHAR
STARTCHAR K
ENCODING 75
SWIDTH 500 0
DWIDTH 9 0
BBX 8 12 0 0
BITMAP
C6
CC
C8
D8
F0
F0
D8
CC
CC
C6
C6
C3
ENDCHAR
STARTCHAR L
ENCODING 76
SWIDTH 444 0
DWIDTH 8 0
BBX 7 12 0 0
BITMAP
C0
C0
C0
C0
C0
C0
C0
C0
C0
C0
C0
FE
ENDCHAR
STARTCHAR M
ENCODING 77
SWIDTH 667 0
DWIDTH 12 0
BBX 11 12 0 0
BITMAP
E0E0
E0E0
F1E0
D160
DB60
DB60
DB60
DB60
CA60
CE60
CE60
C460
ENDCHAR
STARTCHAR N
ENCODING 78
SWIDTH 500 0
DWIDTH 9 0
BBX 8 12 0 0
BITMAP
C3
C3
E3
F3
D3
DB
DB
CB
CF
C7
C3
C3
ENDCHAR
STARTCHAR O
ENCODING 79
SWIDTH 500 0
DWIDTH 9 0
BBX 8 12 0 0
BITMAP
3C
66
C3
C3
C3
C3
C3
C3
C3
C3
66
3C
ENDCHAR
STARTCHAR P
ENCODING 80
SWIDTH 444 0
DWIDTH 8 0
BBX 7 12 0 0
BITMAP
F8
C4
C6
C6
C6
C4
F8
C0
C0
C0
C0
C0
ENDCHAR
STARTCHAR Q
ENCODING 81
SWIDTH 500 0
DWIDTH 9 0
BBX 8 13 0 -1
BITMAP
3C
66
C3
C3
C3
C3
C3
C3
C3
C3
66
3E
07
ENDCHAR
STARTCHAR R
ENCODING 82
SWIDTH 444 0
DWIDTH 8 0
BBX 7 12 0 0
BITMAP
FC
C6
C6
C6
C6
FC
CC
C6
C6
C6
C6
C6
ENDCHAR
STARTCHAR S
ENCODING 83
SWIDTH 444 0
DWIDTH 8 0
BBX 7 12 0 0
BITMAP
7C
C6
C6
C0
60
38
0C
06
06
C6
C6
7C
ENDCHAR
STARTCHAR T
ENCODING 84
SWIDTH 500 0
DWIDTH 9 0
BBX 8 12 0 0
BITMAP
FF
18
18
18
18
18
18
18
18
18
18
18
ENDCHAR
STARTCHAR U
ENCODING 85
SWIDTH 556 0
DWIDTH 10 0
BBX 9 12 0 0
BITMAP
C180
C180
C180
C180
C180
C180
C180
C180
C180
C180
C180
7F00
ENDCHAR
STARTCHAR V
ENCODING 86
SWIDTH 500 0
DWIDTH 9 0
BBX 8 12 0 0
BITMAP
C3
C3
C3
42
66
66
66
66
24
3C
18
18
ENDCHAR
STARTCHAR W
ENCODING 87
SWIDTH 778 0
DWIDTH 14 0
BBX 13 12 0 0
BITMAP
C718
C718
C718
6530
6530
6DB0
6DB0
6DB0
28A0
38E0
38E0
18C0
ENDCHAR
STARTCHAR X
ENCODING 88
SWIDTH 500 0
DWIDTH 9 0
BBX 8 12 0 0
BITMAP
C3
C3
66
66
3C
18
18
3C
66
66
C3
C3
ENDCHAR
STARTCHAR Y
ENCODING 89
SWIDTH 500 0
DWIDTH 9 0
BBX 8 12 0 0
BITMAP
C3
C3
66
66
24
3C
18
18
18
18
18
18
ENDCHAR
STARTCHAR Z
ENCODING 90
SWIDTH 500 0
DWIDTH 9 0
BBX 8 12 0 0
BITMAP
FF
07
06
0C
0C
18
18
30
30
60
E0
FF
ENDCHAR
STARTCHAR bracketleft
ENCODING 91
SWIDTH 278 0
DWIDTH 5 0
BBX 4 16 0 -3
BITMAP
F0
C0
C0
C0
C0
C0
C0
C0
C0
C0
C0
C0
C0
C0
C0
F0
ENDCHAR
STARTCHAR backslash
ENCODING 92
SWIDTH 389 0
DWIDTH 7 0
BBX 6 13 0 0
BITMAP
80
C0
60
60
60
30
30
30
18
18
18
0C
04
ENDCHAR
STARTCHAR bracketright
ENCODING 93
SWIDTH 278 0
DWIDTH 5 0
BBX 4 16 0 -3
BITMAP
F0
30
30
30
30
30
30
30
30
30
30
30
30
30
30
F0
ENDCHAR
STARTCHAR asciicircum
ENCODING 94
SWIDTH 600 0
DWIDTH 10 0
BBX 9 8 1 4
BITMAP
0800
1C00
3600
3600
6300
6300
C180
8080
ENDCHAR
STARTCHAR underscore
ENCODING 95
SWIDTH 500 0
DWIDTH 9 0
BBX 9 2 0 -3
BITMAP
FF80
FF80
ENDCHAR
STARTCHAR grave
ENCODING 96
SWIDTH 278 0
DWIDTH 5 0
BBX 4 3 0 13
BITMAP
C0
60
30
ENDCHAR
STARTCHAR a
ENCODING 97
SWIDTH 444 0
DWIDTH 8 0
BBX 7 9 0 0
BITMAP
7C
C6
06
7E
C6
C6
C6
CE
76
ENDCHAR
STARTCHAR b
ENCODING 98
SWIDTH 444 0
DWIDTH 8 0
BBX 7 12 0 0
BITMAP
C0
C0
C0
F8
CC
C6
C6
C6
C6
C6
CC
F8
ENDCHAR
STARTCHAR c
ENCODING 99
SWIDTH 444 0
DWIDTH 8 0
BBX 7 9 0 0
BITMAP
7C
C6
C6
C0
C0
C0
C6
C6
7C
ENDCHAR
STARTCHAR d
ENCODING 100
SWIDTH 463 0
DWIDTH 8 0
BBX 7 12 0 0
BITMAP
06
06
06
3E
66
C6
C6
C6
C6
C6
66
3E
ENDCHAR
STARTCHAR e
ENCODING 101
SWIDTH 444 0
DWIDTH 8 0
BBX 7 9 0 0
BITMAP
7C
C6
C6
C6
FC
C0
C2
C6
7C
ENDCHAR
STARTCHAR f
ENCODING 102
SWIDTH 333 0
DWIDTH 6 0
BBX 5 12 0 0
BITMAP
38
60
60
F8
60
60
60
60
60
60
60
60
ENDCHAR
STARTCHAR g
ENCODING 103
SWIDTH 444 0
DWIDTH 8 0
BBX 7 12 0 -3
BITMAP
7C
C6
C6
C6
C6
C6
C6
C6
7E
06
0E
7C
ENDCHAR
STARTCHAR h
ENCODING 104
SWIDTH 444 0
DWIDTH 8 0
BBX 7 12 0 0
BITMAP
C0
C0
C0
FC
C6
C6
C6
C6
C6
C6
C6
C6
ENDCHAR
STARTCHAR i
ENCODING 105
SWIDTH 167 0
DWIDTH 3 0
BBX 2 12 0 0
BITMAP
C0
C0
00
C0
C0
C0
C0
C0
C0
C0
C0
C0
ENDCHAR
STARTCHAR j
ENCODING 106
SWIDTH 222 0
DWIDTH 4 0
BBX 3 15 0 -3
BITMAP
60
60
00
60
60
60
60
60
60
60
60
60
60
60
C0
ENDCHAR
STARTCHAR k
ENCODING 107
SWIDTH 444 0
DWIDTH 8 0
BBX 7 12 0 0
BITMAP
C0
C0
C0
CC
D8
D8
F0
F0
D8
DC
CC
CE
ENDCHAR
STARTCHAR l
ENCODING 108
SWIDTH 167 0
DWIDTH 3 0
BBX 2 12 0 0
BITMAP
C0
C0
C0
C0
C0
C0
C0
C0
C0
C0
C0
C0
ENDCHAR
STARTCHAR m
ENCODING 109
SWIDTH 611 0
DWIDTH 11 0
BBX 10 9 0 0
BITMAP
7F80
EDC0
CCC0
CCC0
CCC0
CCC0
CCC0
CCC0
CCC0
ENDCHAR
STARTCHAR n
ENCODING 110
SWIDTH 444 0
DWIDTH 8 0
BBX 7 9 0 0
BITMAP
7C
EE
C6
C6
C6
C6
C6
C6
C6
ENDCHAR
STARTCHAR o
ENCODING 111
SWIDTH 444 0
DWIDTH 8 0
BBX 7 9 0 0
BITMAP
7C
C6
C6
C6
C6
C6
C6
C6
7C
ENDCHAR
STARTCHAR p
ENCODING 112
SWIDTH 444 0
DWIDTH 8 0
BBX 7 12 0 -3
BITMAP
F8
CC
C6
C6
C6
C6
C6
CC
F8
C0
C0
C0
ENDCHAR
STARTCHAR q
ENCODING 113
SWIDTH 463 0
DWIDTH 8 0
BBX 7 12 0 -3
BITMAP
3E
66
C6
C6
C6
C6
C6
66
3E
06
06
06
ENDCHAR
STARTCHAR r
ENCODING 114
SWIDTH 333 0
DWIDTH 6 0
BBX 5 9 0 0
BITMAP
D8
F8
E0
C0
C0
C0
C0
C0
C0
ENDCHAR
STARTCHAR s
ENCODING 115
SWIDTH 444 0
DWIDTH 8 0
BBX 7 9 0 0
BITMAP
7C
C6
C0
C0
7C
06
C6
C6
7C
ENDCHAR
STARTCHAR t
ENCODING 116
SWIDTH 278 0
DWIDTH 5 0
BBX 4 11 0 0
BITMAP
60
60
F0
60
60
60
60
60
60
60
30
ENDCHAR
STARTCHAR u
ENCODING 117
SWIDTH 444 0
DWIDTH 8 0
BBX 7 9 0 0
BITMAP
C6
C6
C6
C6
C6
C6
C6
C6
7C
ENDCHAR
STARTCHAR v
ENCODING 118
SWIDTH 444 0
DWIDTH 8 0
BBX 7 9 0 0
BITMAP
C6
C6
C6
6C
6C
6C
38
38
10
ENDCHAR
STARTCHAR w
ENCODING 119
SWIDTH 667 0
DWIDTH 12 0
BBX 11 9 0 0
BITMAP
C060
C460
CE60
6EC0
6EC0
6AC0
3B80
3B80
1100
ENDCHAR
STARTCHAR x
ENCODING 120
SWIDTH 444 0
DWIDTH 8 0
BBX 7 9 0 0
BITMAP
C6
6C
6C
38
38
6C
6C
C6
C6
ENDCHAR
STARTCHAR y
ENCODING 121
SWIDTH 444 0
DWIDTH 8 0
BBX 7 12 0 -3
BITMAP
C6
C6
C6
C6
C6
C6
C6
C6
7E
06
0E
38
ENDCHAR
STARTCHAR z
ENCODING 122
SWIDTH 444 0
DWIDTH 8 0
BBX 7 9 0 0
BITMAP
FE
06
0C
18
30
30
60
C0
FC
ENDCHAR
STARTCHAR braceleft
ENCODING 123
SWIDTH 333 0
DWIDTH 6 0
BBX 5 16 0 -3
BITMAP
38
60
60
60
60
60
60
C0
C0
60
60
60
60
60
60
38
ENDCHAR
STARTCHAR bar
ENCODING 124
SWIDTH 167 0
DWIDTH 3 0
BBX 2 13 0 0
BITMAP
C0
C0
C0
C0
C0
C0
C0
C0
C0
C0
C0
C0
C0
ENDCHAR
STARTCHAR braceright
ENCODING 125
SWIDTH 333 0
DWIDTH 6 0
BBX 5 16 0 -3
BITMAP
E0
30
30
30
30
30
30
18
18
30
30
30
30
30
30
E0
ENDCHAR
STARTCHAR asciitilde
ENCODING 126
SWIDTH 611 0
DWIDTH 11 0
BBX 10 3 0 3
BITMAP
38C0
6D80
C700
ENDCHAR
STARTCHAR quotesinglbase
ENCODING 8218
SWIDTH 240 0
DWIDTH 4 0
BBX 2 5 1 -3
BITMAP
C0
C0
40
40
80
ENDCHAR
STARTCHAR florin
ENCODING 402
SWIDTH 480 0
DWIDTH 8 0
BBX 8 16 0 -3
BITMAP
03
06
0C
0C
0C
3E
18
18
18
18
18
30
30
30
70
E0
ENDCHAR
STARTCHAR quotedblbase
ENCODING 8222
SWIDTH 407 0
DWIDTH 7 0
BBX 5 5 1 -3
BITMAP
D8
D8
48
48
90
ENDCHAR
STARTCHAR ellipsis
ENCODING 8230
SWIDTH 1000 0
DWIDTH 18 0
BBX 14 2 2 0
BITMAP
C30C
C30C
ENDCHAR
STARTCHAR dagger
ENCODING 8224
SWIDTH 500 0
DWIDTH 9 0
BBX 8 16 0 -3
BITMAP
18
18
18
18
FF
18
18
18
18
18
18
18
18
18
18
18
ENDCHAR
STARTCHAR daggerdbl
ENCODING 8225
SWIDTH 482 0
DWIDTH 8 0
BBX 8 16 0 -3
BITMAP
18
18
18
18
FF
FF
18
18
18
7E
7E
18
18
18
18
18
ENDCHAR
STARTCHAR circumflex
ENCODING 710
SWIDTH 204 0
DWIDTH 3 0
BBX 6 3 -1 13
BITMAP
30
78
CC
ENDCHAR
STARTCHAR perthousand
ENCODING 8240
SWIDTH 1278 0
DWIDTH 23 0
BBX 22 13 0 0
BITMAP
786000
CC6000
CCC000
CCC000
CD8000
CD8000
7B3C78
0366CC
0666CC
0666CC
0C66CC
0C66CC
183C78
ENDCHAR
STARTCHAR guilsinglleft
ENCODING 8249
SWIDTH 278 0
DWIDTH 5 0
BBX 4 6 0 2
BITMAP
30
60
C0
C0
60
30
ENDCHAR
STARTCHAR OE
ENCODING 338
SWIDTH 778 0
DWIDTH 14 0
BBX 13 12 0 0
BITMAP
3FF8
6300
C300
C300
C300
C3F0
C300
C300
C300
C300
6300
3FF8
ENDCHAR
STARTCHAR quoteleft
ENCODING 8216
SWIDTH 167 0
DWIDTH 3 0
BBX 2 5 0 8
BITMAP
40
80
80
C0
C0
ENDCHAR
STARTCHAR quoteright
ENCODING 8217
SWIDTH 167 0
DWIDTH 3 0
BBX 2 5 0 8
BITMAP
C0
C0
40
40
80
ENDCHAR
STARTCHAR quotedblleft
ENCODING 8220
SWIDTH 333 0
DWIDTH 6 0
BBX 5 5 0 8
BITMAP
48
90
90
D8
D8
ENDCHAR
STARTCHAR quotedblright
ENCODING 8221
SWIDTH 333 0
DWIDTH 6 0
BBX 5 5 0 8
BITMAP
D8
D8
48
48
90
ENDCHAR
STARTCHAR bullet
ENCODING 8226
SWIDTH 500 0
DWIDTH 9 0
BBX 7 7 1 3
BITMAP
38
7C
FE
FE
FE
7C
38
ENDCHAR
STARTCHAR endash
ENCODING 8211
SWIDTH 500 0
DWIDTH 9 0
BBX 9 2 0 4
BITMAP
FF80
FF80
ENDCHAR
STARTCHAR emdash
ENCODING 8212
SWIDTH 1000 0
DWIDTH 18 0
BBX 18 2 0 4
BITMAP
FFFFC0
FFFFC0
ENDCHAR
STARTCHAR tilde
ENCODING 732
SWIDTH 444 0
DWIDTH 8 0
BBX 7 2 0 14
BITMAP
76
DC
ENDCHAR
STARTCHAR trademark
ENCODING 8482
SWIDTH 944 0
DWIDTH 17 0
BBX 16 8 0 5
BITMAP
FD83
31C7
31C7
31EF
31AB
31AB
31BB
3193
ENDCHAR
STARTCHAR guilsinglright
ENCODING 8250
SWIDTH 278 0
DWIDTH 5 0
BBX 4 6 0 2
BITMAP
C0
60
30
30
60
C0
ENDCHAR
STARTCHAR oe
ENCODING 339
SWIDTH 722 0
DWIDTH 13 0
BBX 12 9 0 0
BITMAP
7FE0
C630
C630
C630
C7E0
C600
C610
C630
7FE0
ENDCHAR
STARTCHAR Ydieresis
ENCODING 376
SWIDTH 500 0
DWIDTH 9 0
BBX 8 16 0 0
BITMAP
6C
6C
00
00
C3
C3
66
66
24
3C
18
18
18
18
18
18
ENDCHAR
STARTCHAR nbspace
ENCODING 160
SWIDTH 240 0
DWIDTH 4 0
BBX 0 0 0 0
BITMAP
ENDCHAR
STARTCHAR exclamdown
ENCODING 161
SWIDTH 167 0
DWIDTH 3 0
BBX 2 13 0 -3
BITMAP
C0
C0
00
00
C0
C0
C0
C0
C0
C0
C0
C0
C0
ENDCHAR
STARTCHAR cent
ENCODING 162
SWIDTH 444 0
DWIDTH 8 0
BBX 7 13 0 -2
BITMAP
10
10
7C
D6
D6
D0
D0
D0
D6
D6
7C
10
10
ENDCHAR
STARTCHAR sterling
ENCODING 163
SWIDTH 500 0
DWIDTH 9 0
BBX 8 13 0 0
BITMAP
1C
36
63
61
60
60
FC
30
30
30
30
71
7F
ENDCHAR
STARTCHAR currency
ENCODING 164
SWIDTH 667 0
DWIDTH 12 0
BBX 11 9 0 1
BITMAP
C060
7FC0
3180
3180
3180
3180
3180
7FC0
C060
ENDCHAR
STARTCHAR yen
ENCODING 165
SWIDTH 500 0
DWIDTH 9 0
BBX 8 12 0 0
BITMAP
C3
C3
66
66
24
3C
FF
18
FF
18
18
18
ENDCHAR
STARTCHAR section
ENCODING 167
SWIDTH 444 0
DWIDTH 8 0
BBX 7 16 0 -3
BITMAP
78
CC
C4
60
70
D8
8C
86
C2
66
3C
0C
06
C6
6C
38
ENDCHAR
STARTCHAR dieresis
ENCODING 168
SWIDTH 333 0
DWIDTH 6 0
BBX 5 2 0 14
BITMAP
D8
D8
ENDCHAR
STARTCHAR copyright
ENCODING 169
SWIDTH 800 0
DWIDTH 14 0
BBX 13 13 0 0
BITMAP
1FC0
2020
4010
8F88
8808
8808
8808
8808
8808
8F88
4010
2020
1FC0
ENDCHAR
STARTCHAR ordfeminine
ENCODING 170
SWIDTH 333 0
DWIDTH 6 0
BBX 5 6 0 7
BITMAP
70
D8
18
78
98
F8
ENDCHAR
STARTCHAR guillemotleft
ENCODING 171
SWIDTH 500 0
DWIDTH 9 0
BBX 8 6 0 2
BITMAP
33
66
CC
CC
66
33
ENDCHAR
STARTCHAR logicalnot
ENCODING 172
SWIDTH 556 0
DWIDTH 10 0
BBX 9 5 0 2
BITMAP
FF80
0180
0180
0180
0180
ENDCHAR
STARTCHAR registered
ENCODING 174
SWIDTH 778 0
DWIDTH 14 0
BBX 13 13 0 0
BITMAP
1FC0
2020
4010
8F88
8888
8888
8F88
8A08
8908
8988
4010
2020
1FC0
ENDCHAR
STARTCHAR macron
ENCODING 175
SWIDTH 333 0
DWIDTH 6 0
BBX 5 2 0 13
BITMAP
F8
F8
ENDCHAR
STARTCHAR degree
ENCODING 176
SWIDTH 444 0
DWIDTH 8 0
BBX 7 6 0 7
BITMAP
38
6C
C6
C6
6C
38
ENDCHAR
STARTCHAR plusminus
ENCODING 177
SWIDTH 600 0
DWIDTH 10 0
BBX 8 10 1 0
BITMAP
18
18
18
FF
FF
18
18
18
00
FF
ENDCHAR
STARTCHAR acute
ENCODING 180
SWIDTH 278 0
DWIDTH 5 0
BBX 4 3 0 13
BITMAP
30
60
C0
ENDCHAR
STARTCHAR mu
ENCODING 181
SWIDTH 500 0
DWIDTH 9 0
BBX 8 12 0 -3
BITMAP
C3
C3
C3
C3
C3
C3
C3
C3
FE
C0
C0
C0
ENDCHAR
STARTCHAR paragraph
ENCODING 182
SWIDTH 556 0
DWIDTH 10 0
BBX 8 16 1 -3
BITMAP
3F
7B
FB
FB
FB
FB
7B
1B
1B
1B
1B
1B
1B
1B
1B
1B
ENDCHAR
STARTCHAR periodcentered
ENCODING 183
SWIDTH 240 0
DWIDTH 4 0
BBX 2 2 1 5
BITMAP
C0
C0
ENDCHAR
STARTCHAR cedilla
ENCODING 184
SWIDTH 278 0
DWIDTH 5 0
BBX 4 3 1 -3
BITMAP
30
30
E0
ENDCHAR
STARTCHAR ordmasculine
ENCODING 186
SWIDTH 333 0
DWIDTH 6 0
BBX 5 6 0 7
BITMAP
70
D8
88
88
D8
70
ENDCHAR
STARTCHAR guillemotright
ENCODING 187
SWIDTH 500 0
DWIDTH 9 0
BBX 8 6 0 2
BITMAP
CC
66
33
33
66
CC
ENDCHAR
STARTCHAR questiondown
ENCODING 191
SWIDTH 444 0
DWIDTH 8 0
BBX 7 13 0 -3
BITMAP
30
30
00
30
30
30
18
0C
06
C6
C6
EE
7C
ENDCHAR
STARTCHAR Agrave
ENCODING 192
SWIDTH 444 0
DWIDTH 8 0
BBX 7 16 0 0
BITMAP
60
30
18
00
38
6C
6C
C6
C6
C6
C6
FE
C6
C6
C6
C6
ENDCHAR
STARTCHAR Aacute
ENCODING 193
SWIDTH 444 0
DWIDTH 8 0
BBX 7 16 0 0
BITMAP
0C
18
30
00
38
6C
6C
C6
C6
C6
C6
FE
C6
C6
C6
C6
ENDCHAR
STARTCHAR Acircumflex
ENCODING 194
SWIDTH 444 0
DWIDTH 8 0
BBX 7 16 0 0
BITMAP
30
78
CC
00
38
6C
6C
C6
C6
C6
C6
FE
C6
C6
C6
C6
ENDCHAR
STARTCHAR Atilde
ENCODING 195
SWIDTH 444 0
DWIDTH 8 0
BBX 7 16 0 0
BITMAP
76
DC
00
00
38
6C
6C
C6
C6
C6
C6
FE
C6
C6
C6
C6
ENDCHAR
STARTCHAR Adieresis
ENCODING 196
SWIDTH 444 0
DWIDTH 8 0
BBX 7 16 0 0
BITMAP
6C
6C
00
00
38
6C
6C
C6
C6
C6
C6
FE
C6
C6
C6
C6
ENDCHAR
STARTCHAR Aring
ENCODING 197
SWIDTH 444 0
DWIDTH 8 0
BBX 7 16 0 0
BITMAP
38
6C
44
6C
38
7C
6C
C6
C6
C6
C6
FE
C6
C6
C6
C6
ENDCHAR
STARTCHAR AE
ENCODING 198
SWIDTH 722 0
DWIDTH 13 0
BBX 12 12 0 0
BITMAP
3FF0
6600
6600
C600
C600
C7E0
C600
FE00
C600
C600
C600
C7F0
ENDCHAR
STARTCHAR Ccedilla
ENCODING 199
SWIDTH 444 0
DWIDTH 8 0
BBX 7 15 0 -3
BITMAP
3C
66
C6
C0
C0
C0
C0
C0
C0
C6
66
3C
0C
0C
38
ENDCHAR
STARTCHAR Egrave
ENCODING 200
SWIDTH 444 0
DWIDTH 8 0
BBX 7 16 0 0
BITMAP
60
30
18
00
FE
C0
C0
C0
C0
FC
C0
C0
C0
C0
C0
FE
ENDCHAR
STARTCHAR Eacute
ENCODING 201
SWIDTH 444 0
DWIDTH 8 0
BBX 7 16 0 0
BITMAP
0C
18
30
00
FE
C0
C0
C0
C0
FC
C0
C0
C0
C0
C0
FE
ENDCHAR
STARTCHAR Ecircumflex
ENCODING 202
SWIDTH 444 0
DWIDTH 8 0
BBX 7 16 0 0
BITMAP
30
78
CC
00
FE
C0
C0
C0
C0
FC
C0
C0
C0
C0
C0
FE
ENDCHAR
STARTCHAR Edieresis
ENCODING 203
SWIDTH 444 0
DWIDTH 8 0
BBX 7 16 0 0
BITMAP
6C
6C
00
00
FE
C0
C0
C0
C0
FC
C0
C0
C0
C0
C0
FE
ENDCHAR
STARTCHAR Igrave
ENCODING 204
SWIDTH 167 0
DWIDTH 3 0
BBX 4 16 -1 0
BITMAP
C0
60
30
00
60
60
60
60
60
60
60
60
60
60
60
60
ENDCHAR
STARTCHAR Iacute
ENCODING 205
SWIDTH 167 0
DWIDTH 3 0
BBX 4 16 0 0
BITMAP
30
60
C0
00
C0
C0
C0
C0
C0
C0
C0
C0
C0
C0
C0
C0
ENDCHAR
STARTCHAR Icircumflex
ENCODING 206
SWIDTH 167 0
DWIDTH 3 0
BBX 6 16 -2 0
BITMAP
30
78
CC
00
30
30
30
30
30
30
30
30
30
30
30
30
ENDCHAR
STARTCHAR Idieresis
ENCODING 207
SWIDTH 167 0
DWIDTH 3 0
BBX 5 16 -1 0
BITMAP
D8
D8
00
00
60
60
60
60
60
60
60
60
60
60
60
60
ENDCHAR
STARTCHAR Ntilde
ENCODING 209
SWIDTH 500 0
DWIDTH 9 0
BBX 8 16 0 0
BITMAP
3B
6E
00
00
C3
C3
E3
F3
D3
DB
DB
CB
CF
C7
C3
C3
ENDCHAR
STARTCHAR Ograve
ENCODING 210
SWIDTH 500 0
DWIDTH 9 0
BBX 8 16 0 0
BITMAP
60
30
18
00
3C
66
C3
C3
C3
C3
C3
C3
C3
C3
66
3C
ENDCHAR
STARTCHAR Oacute
ENCODING 211
SWIDTH 500 0
DWIDTH 9 0
BBX 8 16 0 0
BITMAP
06
0C
18
00
3C
66
C3
C3
C3
C3
C3
C3
C3
C3
66
3C
ENDCHAR
STARTCHAR Ocircumflex
ENCODING 212
SWIDTH 500 0
DWIDTH 9 0
BBX 8 16 0 0
BITMAP
18
3C
66
00
3C
66
C3
C3
C3
C3
C3
C3
C3
C3
66
3C
ENDCHAR
STARTCHAR Otilde
ENCODING 213
SWIDTH 500 0
DWIDTH 9 0
BBX 8 16 0 0
BITMAP
76
DC
00
00
3C
66
C3
C3
C3
C3
C3
C3
C3
C3
66
3C
ENDCHAR
STARTCHAR Odieresis
ENCODING 214
SWIDTH 500 0
DWIDTH 9 0
BBX 8 16 0 0
BITMAP
66
66
00
00
3C
66
C3
C3
C3
C3
C3
C3
C3
C3
66
3C
ENDCHAR
STARTCHAR Oslash
ENCODING 216
SWIDTH 500 0
DWIDTH 9 0
BBX 8 14 0 -1
BITMAP
03
3E
66
CF
CB
CB
CB
DB
D3
D3
D3
76
7C
C0
ENDCHAR
STARTCHAR Ugrave
ENCODING 217
SWIDTH 556 0
DWIDTH 10 0
BBX 9 16 0 0
BITMAP
3000
1800
0C00
0000
C180
C180
C180
C180
C180
C180
C180
C180
C180
C180
C180
7F00
ENDCHAR
STARTCHAR Uacute
ENCODING 218
SWIDTH 556 0
DWIDTH 10 0
BBX 9 16 0 0
BITMAP
0600
0C00
1800
0000
C180
C180
C180
C180
C180
C180
C180
C180
C180
C180
C180
7F00
ENDCHAR
STARTCHAR Ucircumflex
ENCODING 219
SWIDTH 556 0
DWIDTH 10 0
BBX 9 16 0 0
BITMAP
1800
3C00
6600
0000
C180
C180
C180
C180
C180
C180
C180
C180
C180
C180
C180
7F00
ENDCHAR
STARTCHAR Udieresis
ENCODING 220
SWIDTH 500 0
DWIDTH 9 0
BBX 8 16 0 0
BITMAP
66
66
00
00
C3
C3
C3
C3
C3
C3
C3
C3
C3
C3
C3
7E
ENDCHAR
STARTCHAR germandbls
ENCODING 223
SWIDTH 463 0
DWIDTH 8 0
BBX 8 13 0 0
BITMAP
3C
66
C3
C3
C6
CC
C6
C3
C3
C3
C3
C6
CC
ENDCHAR
STARTCHAR agrave
ENCODING 224
SWIDTH 444 0
DWIDTH 8 0
BBX 7 14 0 0
BITMAP
60
30
18
00
00
7C
C6
06
7E
C6
C6
C6
CE
76
ENDCHAR
STARTCHAR aacute
ENCODING 225
SWIDTH 444 0
DWIDTH 8 0
BBX 7 14 0 0
BITMAP
0C
18
30
00
00
7C
C6
06
7E
C6
C6
C6
CE
76
ENDCHAR
STARTCHAR acircumflex
ENCODING 226
SWIDTH 444 0
DWIDTH 8 0
BBX 7 14 0 0
BITMAP
18
3C
66
00
00
7C
C6
06
7E
C6
C6
C6
CE
76
ENDCHAR
STARTCHAR atilde
ENCODING 227
SWIDTH 444 0
DWIDTH 8 0
BBX 7 13 0 0
BITMAP
76
DC
00
00
7C
C6
06
7E
C6
C6
C6
CE
76
ENDCHAR
STARTCHAR adieresis
ENCODING 228
SWIDTH 444 0
DWIDTH 8 0
BBX 7 13 0 0
BITMAP
6C
6C
00
00
7C
C6
06
7E
C6
C6
C6
CE
76
ENDCHAR
STARTCHAR aring
ENCODING 229
SWIDTH 444 0
DWIDTH 8 0
BBX 7 16 0 0
BITMAP
38
6C
44
6C
38
00
00
7C
C6
06
7E
C6
C6
C6
CE
76
ENDCHAR
STARTCHAR ae
ENCODING 230
SWIDTH 722 0
DWIDTH 13 0
BBX 12 9 0 0
BITMAP
7FE0
C630
0630
7E30
C7E0
C600
C610
C630
7FE0
ENDCHAR
STARTCHAR ccedilla
ENCODING 231
SWIDTH 444 0
DWIDTH 8 0
BBX 7 12 0 -3
BITMAP
7C
C6
C6
C0
C0
C0
C6
C6
7C
18
18
78
ENDCHAR
STARTCHAR egrave
ENCODING 232
SWIDTH 444 0
DWIDTH 8 0
BBX 7 14 0 0
BITMAP
60
30
18
00
00
7C
C6
C6
C6
FC
C0
C2
C6
7C
ENDCHAR
STARTCHAR eacute
ENCODING 233
SWIDTH 444 0
DWIDTH 8 0
BBX 7 14 0 0
BITMAP
0C
18
30
00
00
7C
C6
C6
C6
FC
C0
C2
C6
7C
ENDCHAR
STARTCHAR ecircumflex
ENCODING 234
SWIDTH 444 0
DWIDTH 8 0
BBX 7 14 0 0
BITMAP
30
78
CC
00
00
7C
C6
C6
C6
FC
C0
C2
C6
7C
ENDCHAR
STARTCHAR edieresis
ENCODING 235
SWIDTH 444 0
DWIDTH 8 0
BBX 7 13 0 0
BITMAP
6C
6C
00
00
7C
C6
C6
C6
FC
C0
C2
C6
7C
ENDCHAR
STARTCHAR igrave
ENCODING 236
SWIDTH 167 0
DWIDTH 3 0
BBX 4 14 -2 0
BITMAP
C0
60
30
00
00
30
30
30
30
30
30
30
30
30
ENDCHAR
STARTCHAR iacute
ENCODING 237
SWIDTH 167 0
DWIDTH 3 0
BBX 4 14 0 0
BITMAP
30
60
C0
00
00
C0
C0
C0
C0
C0
C0
C0
C0
C0
ENDCHAR
STARTCHAR icircumflex
ENCODING 238
SWIDTH 389 0
DWIDTH 7 0
BBX 6 14 0 0
BITMAP
30
78
CC
00
00
30
30
30
30
30
30
30
30
30
ENDCHAR
STARTCHAR idieresis
ENCODING 239
SWIDTH 389 0
DWIDTH 7 0
BBX 6 13 0 0
BITMAP
CC
CC
00
00
30
30
30
30
30
30
30
30
30
ENDCHAR
STARTCHAR ntilde
ENCODING 241
SWIDTH 444 0
DWIDTH 8 0
BBX 7 13 0 0
BITMAP
76
DC
00
00
7C
EE
C6
C6
C6
C6
C6
C6
C6
ENDCHAR
STARTCHAR ograve
ENCODING 242
SWIDTH 444 0
DWIDTH 8 0
BBX 7 14 0 0
BITMAP
60
30
18
00
00
7C
C6
C6
C6
C6
C6
C6
C6
7C
ENDCHAR
STARTCHAR oacute
ENCODING 243
SWIDTH 444 0
DWIDTH 8 0
BBX 7 14 0 0
BITMAP
0C
18
30
00
00
7C
C6
C6
C6
C6
C6
C6
C6
7C
ENDCHAR
STARTCHAR ocircumflex
ENCODING 244
SWIDTH 444 0
DWIDTH 8 0
BBX 7 14 0 0
BITMAP
30
78
CC
00
00
7C
C6
C6
C6
C6
C6
C6
C6
7C
ENDCHAR
STARTCHAR otilde
ENCODING 245
SWIDTH 444 0
DWIDTH 8 0
BBX 7 13 0 0
BITMAP
76
DC
00
00
7C
C6
C6
C6
C6
C6
C6
C6
7C
ENDCHAR
STARTCHAR odieresis
ENCODING 246
SWIDTH 444 0
DWIDTH 8 0
BBX 7 13 0 0
BITMAP
6C
6C
00
00
7C
C6
C6
C6
C6
C6
C6
C6
7C
ENDCHAR
STARTCHAR divide
ENCODING 247
SWIDTH 600 0
DWIDTH 10 0
BBX 8 8 1 1
BITMAP
18
18
00
FF
FF
00
18
18
ENDCHAR
STARTCHAR oslash
ENCODING 248
SWIDTH 444 0
DWIDTH 8 0
BBX 7 11 0 -1
BITMAP
02
7C
CE
D6
D6
D6
D6
D6
E6
7C
80
ENDCHAR
STARTCHAR ugrave
ENCODING 249
SWIDTH 444 0
DWIDTH 8 0
BBX 7 14 0 0
BITMAP
60
30
18
00
00
C6
C6
C6
C6
C6
C6
C6
C6
7C
ENDCHAR
STARTCHAR uacute
ENCODING 250
SWIDTH 444 0
DWIDTH 8 0
BBX 7 14 0 0
BITMAP
0C
18
30
00
00
C6
C6
C6
C6
C6
C6
C6
C6
7C
ENDCHAR
STARTCHAR ucircumflex
ENCODING 251
SWIDTH 444 0
DWIDTH 8 0
BBX 7 14 0 0
BITMAP
30
78
CC
00
00
C6
C6
C6
C6
C6
C6
C6
C6
7C
ENDCHAR
STARTCHAR udieresis
ENCODING 252
SWIDTH 444 0
DWIDTH 8 0
BBX 7 13 0 0
BITMAP
6C
6C
00
00
C6
C6
C6
C6
C6
C6
C6
C6
7C
ENDCHAR
STARTCHAR ydieresis
ENCODING 255
SWIDTH 444 0
DWIDTH 8 0
BBX 7 16 0 -3
BITMAP
CC
CC
00
00
C6
C6
C6
C6
C6
C6
C6
C6
7E
06
0E
38
ENDCHAR
STARTCHAR hyphen
ENCODING 45
SWIDTH 278 0
DWIDTH 5 0
BBX 4 2 0 4
BITMAP
F0
F0
ENDCHAR
STARTCHAR fraction
ENCODING 8260
SWIDTH 167 0
DWIDTH 3 0
BBX 9 14 -3 -1
BITMAP
0180
0100
0300
0600
0400
0C00
0800
1800
3000
2000
6000
4000
C000
8000
ENDCHAR
STARTCHAR fi
ENCODING 64257
SWIDTH 389 0
DWIDTH 7 0
BBX 6 12 0 0
BITMAP
3C
6C
60
FC
6C
6C
6C
6C
6C
6C
6C
6C
ENDCHAR
STARTCHAR fl
ENCODING 64258
SWIDTH 333 0
DWIDTH 6 0
BBX 6 12 0 0
BITMAP
3C
6C
6C
FC
6C
6C
6C
6C
6C
6C
6C
6C
ENDCHAR
STARTCHAR Delta
ENCODING 916
SWIDTH 556 0
DWIDTH 10 0
BBX 9 12 0 0
BITMAP
0800
1C00
1400
3600
3600
2200
6300
6300
4100
C180
C180
FF80
ENDCHAR
STARTCHAR Omega
ENCODING 937
SWIDTH 556 0
DWIDTH 10 0
BBX 9 12 0 0
BITMAP
3E00
6300
C180
C180
C180
C180
C180
C180
C180
4100
2200
E380
ENDCHAR
STARTCHAR pi
ENCODING 960
SWIDTH 556 0
DWIDTH 10 0
BBX 9 9 0 0
BITMAP
FF80
6300
6300
6300
6300
6300
6300
6300
6380
ENDCHAR
STARTCHAR uni20AC
ENCODING 128
SWIDTH 500 0
DWIDTH 9 0
BBX 8 12 0 0
BITMAP
1E
33
63
60
FC
60
FC
60
60
63
33
1E
ENDCHAR
STARTCHAR Scaron
ENCODING 352
SWIDTH 444 0
DWIDTH 8 0
BBX 7 16 0 0
BITMAP
CC
78
30
00
7C
C6
C6
C0
60
38
0C
06
06
C6
C6
7C
ENDCHAR
STARTCHAR scaron
ENCODING 353
SWIDTH 444 0
DWIDTH 8 0
BBX 7 13 0 0
BITMAP
66
3C
18
00
7C
C6
C0
C0
7C
06
C6
C6
7C
ENDCHAR
STARTCHAR brokenbar
ENCODING 166
SWIDTH 167 0
DWIDTH 3 0
BBX 2 13 0 0
BITMAP
C0
C0
C0
C0
C0
00
00
00
C0
C0
C0
C0
C0
ENDCHAR
STARTCHAR twosuperior
ENCODING 178
SWIDTH 333 0
DWIDTH 6 0
BBX 5 8 0 5
BITMAP
70
88
88
08
10
20
40
F8
ENDCHAR
STARTCHAR threesuperior
ENCODING 179
SWIDTH 333 0
DWIDTH 6 0
BBX 5 8 0 5
BITMAP
70
88
08
30
08
08
88
70
ENDCHAR
STARTCHAR onesuperior
ENCODING 185
SWIDTH 222 0
DWIDTH 4 0
BBX 3 8 0 5
BITMAP
20
E0
20
20
20
20
20
20
ENDCHAR
STARTCHAR onequarter
ENCODING 188
SWIDTH 778 0
DWIDTH 14 0
BBX 13 14 0 -1
BITMAP
2040
E040
20C0
2180
2100
2310
2230
2650
0450
0C90
18F8
1010
3010
2000
ENDCHAR
STARTCHAR onehalf
ENCODING 189
SWIDTH 833 0
DWIDTH 15 0
BBX 14 14 0 -1
BITMAP
2040
E040
20C0
2180
2100
2338
2244
2644
0404
0C08
1810
1020
307C
2000
ENDCHAR
STARTCHAR threequarters
ENCODING 190
SWIDTH 833 0
DWIDTH 15 0
BBX 14 14 0 -1
BITMAP
7020
8820
0860
30C0
0880
0988
8918
7328
0228
0648
0C7C
0808
1808
1000
ENDCHAR
STARTCHAR Eth
ENCODING 208
SWIDTH 500 0
DWIDTH 9 0
BBX 8 12 0 0
BITMAP
7C
66
63
63
63
63
F3
63
63
63
66
7C
ENDCHAR
STARTCHAR multiply
ENCODING 215
SWIDTH 444 0
DWIDTH 8 0
BBX 7 8 0 1
BITMAP
82
C6
6C
38
38
6C
C6
82
ENDCHAR
STARTCHAR Yacute
ENCODING 221
SWIDTH 500 0
DWIDTH 9 0
BBX 8 16 0 0
BITMAP
06
0C
18
00
C3
C3
66
66
24
3C
18
18
18
18
18
18
ENDCHAR
STARTCHAR Thorn
ENCODING 222
SWIDTH 444 0
DWIDTH 8 0
BBX 7 12 0 0
BITMAP
C0
C0
F8
C4
C6
C6
C6
C4
F8
C0
C0
C0
ENDCHAR
STARTCHAR eth
ENCODING 240
SWIDTH 444 0
DWIDTH 8 0
BBX 7 13 0 0
BITMAP
38
0C
06
06
7E
C6
C6
C6
C6
C6
C6
CC
78
ENDCHAR
STARTCHAR yacute
ENCODING 253
SWIDTH 444 0
DWIDTH 8 0
BBX 7 16 0 -3
BITMAP
0C
18
30
00
C6
C6
C6
C6
C6
C6
C6
C6
7E
06
0E
38
ENDCHAR
STARTCHAR thorn
ENCODING 254
SWIDTH 444 0
DWIDTH 8 0
BBX 7 15 0 -3
BITMAP
C0
C0
C0
F8
CC
C6
C6
C6
C6
C6
CC
F8
C0
C0
C0
ENDCHAR
STARTCHAR uni0374
ENCODING 884
SWIDTH 278 0
DWIDTH 5 0
BBX 4 3 0 13
BITMAP
30
60
C0
ENDCHAR
STARTCHAR uni0375
ENCODING 885
SWIDTH 278 0
DWIDTH 5 0
BBX 4 3 0 -3
BITMAP
30
60
C0
ENDCHAR
STARTCHAR Lslash
ENCODING 321
SWIDTH 500 0
DWIDTH 9 0
BBX 8 12 0 0
BITMAP
60
60
60
60
68
78
70
E0
E0
60
60
7F
ENDCHAR
STARTCHAR lslash
ENCODING 322
SWIDTH 333 0
DWIDTH 6 0
BBX 5 12 0 0
BITMAP
60
60
60
60
68
78
70
E0
E0
60
60
60
ENDCHAR
STARTCHAR zcaron
ENCODING 158
SWIDTH 444 0
DWIDTH 8 0
BBX 7 14 0 0
BITMAP
CC
78
30
00
00
FE
06
0C
18
30
30
60
C0
FC
ENDCHAR
STARTCHAR Zcaron
ENCODING 142
SWIDTH 463 0
DWIDTH 8 0
BBX 8 16 0 0
BITMAP
66
3C
18
00
FF
07
06
0C
0C
18
18
30
30
60
E0
FF
ENDCHAR
STARTCHAR tonos
ENCODING 900
SWIDTH 222 0
DWIDTH 4 0
BBX 3 3 0 9
BITMAP
E0
C0
C0
ENDCHAR
STARTCHAR dieresistonos
ENCODING 901
SWIDTH 389 0
DWIDTH 7 0
BBX 6 3 0 13
BITMAP
30
B4
A4
ENDCHAR
STARTCHAR Alphatonos
ENCODING 902
SWIDTH 611 0
DWIDTH 11 0
BBX 10 12 0 0
BITMAP
E700
CD80
CD80
18C0
18C0
18C0
18C0
1FC0
18C0
18C0
18C0
18C0
ENDCHAR
STARTCHAR anoteleia
ENCODING 903
SWIDTH 240 0
DWIDTH 4 0
BBX 2 2 1 5
BITMAP
C0
C0
ENDCHAR
STARTCHAR Epsilontonos
ENCODING 904
SWIDTH 667 0
DWIDTH 12 0
BBX 11 12 0 0
BITMAP
EFE0
CC00
CC00
0C00
0C00
0FC0
0C00
0C00
0C00
0C00
0C00
0FE0
ENDCHAR
STARTCHAR Etatonos
ENCODING 905
SWIDTH 722 0
DWIDTH 13 0
BBX 12 12 0 0
BITMAP
EC30
CC30
CC30
0C30
0C30
0FF0
0C30
0C30
0C30
0C30
0C30
0C30
ENDCHAR
STARTCHAR Iotatonos
ENCODING 906
SWIDTH 389 0
DWIDTH 7 0
BBX 6 12 0 0
BITMAP
EC
CC
CC
0C
0C
0C
0C
0C
0C
0C
0C
0C
ENDCHAR
STARTCHAR Omicrontonos
ENCODING 908
SWIDTH 667 0
DWIDTH 12 0
BBX 11 12 0 0
BITMAP
E780
CCC0
D860
1860
1860
1860
1860
1860
1860
1860
0CC0
0780
ENDCHAR
STARTCHAR Upsilontonos
ENCODING 910
SWIDTH 722 0
DWIDTH 13 0
BBX 12 12 0 0
BITMAP
EC30
CC30
C660
0660
0240
03C0
0180
0180
0180
0180
0180
0180
ENDCHAR
STARTCHAR Omegatonos
ENCODING 911
SWIDTH 722 0
DWIDTH 13 0
BBX 12 12 0 0
BITMAP
E7C0
CC60
D830
1830
1830
1830
1830
1830
1830
0820
0440
1C70
ENDCHAR
STARTCHAR iotadieresistonos
ENCODING 912
SWIDTH 389 0
DWIDTH 7 0
BBX 6 13 0 0
BITMAP
30
B4
A4
00
30
30
30
30
30
30
30
30
30
ENDCHAR
STARTCHAR Alpha
ENCODING 913
SWIDTH 444 0
DWIDTH 8 0
BBX 7 12 0 0
BITMAP
38
6C
6C
C6
C6
C6
C6
FE
C6
C6
C6
C6
ENDCHAR
STARTCHAR Beta
ENCODING 914
SWIDTH 444 0
DWIDTH 8 0
BBX 7 12 0 0
BITMAP
F8
CC
C6
C6
CC
F8
CC
C6
C6
C6
CC
F8
ENDCHAR
STARTCHAR Gamma
ENCODING 915
SWIDTH 444 0
DWIDTH 8 0
BBX 7 12 0 0
BITMAP
FE
FE
C0
C0
C0
C0
C0
C0
C0
C0
C0
C0
ENDCHAR
STARTCHAR Epsilon
ENCODING 917
SWIDTH 444 0
DWIDTH 8 0
BBX 7 12 0 0
BITMAP
FE
C0
C0
C0
C0
FC
C0
C0
C0
C0
C0
FE
ENDCHAR
STARTCHAR Zeta
ENCODING 918
SWIDTH 500 0
DWIDTH 9 0
BBX 8 12 0 0
BITMAP
FF
07
06
0C
0C
18
18
30
30
60
E0
FF
ENDCHAR
STARTCHAR Eta
ENCODING 919
SWIDTH 500 0
DWIDTH 9 0
BBX 8 12 0 0
BITMAP
C3
C3
C3
C3
C3
FF
C3
C3
C3
C3
C3
C3
ENDCHAR
STARTCHAR Theta
ENCODING 920
SWIDTH 556 0
DWIDTH 10 0
BBX 9 12 0 0
BITMAP
3E00
6300
C180
C180
C180
DD80
DD80
C180
C180
C180
6300
3E00
ENDCHAR
STARTCHAR Iota
ENCODING 921
SWIDTH 167 0
DWIDTH 3 0
BBX 2 12 0 0
BITMAP
C0
C0
C0
C0
C0
C0
C0
C0
C0
C0
C0
C0
ENDCHAR
STARTCHAR Kappa
ENCODING 922
SWIDTH 500 0
DWIDTH 9 0
BBX 8 12 0 0
BITMAP
C6
CC
C8
D8
F0
F0
D8
CC
CC
C6
C6
C3
ENDCHAR
STARTCHAR Lambda
ENCODING 923
SWIDTH 500 0
DWIDTH 9 0
BBX 8 12 0 0
BITMAP
18
18
3C
24
66
66
66
66
42
C3
C3
C3
ENDCHAR
STARTCHAR Mu
ENCODING 924
SWIDTH 667 0
DWIDTH 12 0
BBX 11 12 0 0
BITMAP
E0E0
E0E0
F1E0
D160
DB60
DB60
DB60
DB60
CA60
CE60
CE60
C460
ENDCHAR
STARTCHAR Nu
ENCODING 925
SWIDTH 500 0
DWIDTH 9 0
BBX 8 12 0 0
BITMAP
C3
C3
E3
F3
D3
DB
DB
CB
CF
C7
C3
C3
ENDCHAR
STARTCHAR Xi
ENCODING 926
SWIDTH 444 0
DWIDTH 8 0
BBX 7 12 0 0
BITMAP
FE
FE
00
00
00
7E
7E
00
00
00
FE
FE
ENDCHAR
STARTCHAR Omicron
ENCODING 927
SWIDTH 500 0
DWIDTH 9 0
BBX 8 12 0 0
BITMAP
3C
66
C3
C3
C3
C3
C3
C3
C3
C3
66
3C
ENDCHAR
STARTCHAR Pi
ENCODING 928
SWIDTH 500 0
DWIDTH 9 0
BBX 8 12 0 0
BITMAP
FF
C3
C3
C3
C3
C3
C3
C3
C3
C3
C3
C3
ENDCHAR
STARTCHAR Rho
ENCODING 929
SWIDTH 444 0
DWIDTH 8 0
BBX 7 12 0 0
BITMAP
F8
C4
C6
C6
C6
C4
F8
C0
C0
C0
C0
C0
ENDCHAR
STARTCHAR Sigma
ENCODING 931
SWIDTH 500 0
DWIDTH 9 0
BBX 8 12 0 0
BITMAP
FF
60
30
18
08
0C
0C
08
18
30
60
FF
ENDCHAR
STARTCHAR Tau
ENCODING 932
SWIDTH 500 0
DWIDTH 9 0
BBX 8 12 0 0
BITMAP
FF
18
18
18
18
18
18
18
18
18
18
18
ENDCHAR
STARTCHAR Upsilon
ENCODING 933
SWIDTH 500 0
DWIDTH 9 0
BBX 8 12 0 0
BITMAP
C3
C3
66
66
24
3C
18
18
18
18
18
18
ENDCHAR
STARTCHAR Phi
ENCODING 934
SWIDTH 611 0
DWIDTH 11 0
BBX 10 13 0 0
BITMAP
0C00
0C00
3F00
6D80
CCC0
CCC0
CCC0
CCC0
CCC0
6D80
3F00
0C00
0C00
ENDCHAR
STARTCHAR Chi
ENCODING 935
SWIDTH 500 0
DWIDTH 9 0
BBX 8 12 0 0
BITMAP
C3
C3
66
66
3C
18
18
3C
66
66
C3
C3
ENDCHAR
STARTCHAR Psi
ENCODING 936
SWIDTH 611 0
DWIDTH 11 0
BBX 10 12 0 0
BITMAP
CCC0
CCC0
CCC0
CCC0
CCC0
CCC0
CCC0
4C80
3F00
0C00
0C00
0C00
ENDCHAR
STARTCHAR Iotadieresis
ENCODING 938
SWIDTH 389 0
DWIDTH 7 0
BBX 6 16 0 0
BITMAP
CC
CC
00
00
30
30
30
30
30
30
30
30
30
30
30
30
ENDCHAR
STARTCHAR Upsilondieresis
ENCODING 939
SWIDTH 500 0
DWIDTH 9 0
BBX 8 16 0 0
BITMAP
66
66
00
00
C3
C3
66
66
24
3C
18
18
18
18
18
18
ENDCHAR
STARTCHAR alphatonos
ENCODING 940
SWIDTH 500 0
DWIDTH 9 0
BBX 8 13 0 0
BITMAP
38
30
30
00
7C
C6
C6
C6
C6
C6
C6
C6
7B
ENDCHAR
STARTCHAR epsilontonos
ENCODING 941
SWIDTH 389 0
DWIDTH 7 0
BBX 6 13 0 0
BITMAP
70
60
20
00
78
CC
C4
C0
70
C0
C4
CC
78
ENDCHAR
STARTCHAR etatonos
ENCODING 942
SWIDTH 500 0
DWIDTH 9 0
BBX 8 16 0 -3
BITMAP
1C
18
18
00
FE
63
63
63
63
63
63
63
63
03
03
03
ENDCHAR
STARTCHAR iotatonos
ENCODING 943
SWIDTH 222 0
DWIDTH 4 0
BBX 3 13 0 0
BITMAP
C0
C0
00
00
C0
C0
C0
C0
C0
C0
C0
C0
60
ENDCHAR
STARTCHAR upsilondieresistonos
ENCODING 944
SWIDTH 444 0
DWIDTH 8 0
BBX 7 13 0 0
BITMAP
30
B4
A4
00
C6
C6
C6
C6
C6
C6
C6
C6
7C
ENDCHAR
STARTCHAR alpha
ENCODING 945
SWIDTH 500 0
DWIDTH 9 0
BBX 8 9 0 0
BITMAP
7C
C6
C6
C6
C6
C6
C6
C6
7B
ENDCHAR
STARTCHAR beta
ENCODING 946
SWIDTH 444 0
DWIDTH 8 0
BBX 7 15 0 -3
BITMAP
3C
66
C6
C6
C4
CC
C6
C6
C6
C6
E6
DC
C0
C0
C0
ENDCHAR
STARTCHAR gamma
ENCODING 947
SWIDTH 556 0
DWIDTH 10 0
BBX 9 12 0 -3
BITMAP
C180
6180
3300
3300
1200
1E00
0C00
0C00
0C00
0C00
0C00
0C00
ENDCHAR
STARTCHAR delta
ENCODING 948
SWIDTH 444 0
DWIDTH 8 0
BBX 7 12 0 0
BITMAP
FE
60
38
7C
C6
C6
C6
C6
C6
C6
C6
7C
ENDCHAR
STARTCHAR epsilon
ENCODING 949
SWIDTH 416 0
DWIDTH 7 0
BBX 6 9 0 0
BITMAP
78
CC
C4
C0
70
C0
C4
CC
78
ENDCHAR
STARTCHAR zeta
ENCODING 950
SWIDTH 389 0
DWIDTH 7 0
BBX 6 15 0 -3
BITMAP
F8
38
30
60
C0
C0
C0
C0
C0
C0
C0
70
18
0C
0C
ENDCHAR
STARTCHAR eta
ENCODING 951
SWIDTH 500 0
DWIDTH 9 0
BBX 8 12 0 -3
BITMAP
EE
73
63
63
63
63
63
63
63
03
03
03
ENDCHAR
STARTCHAR theta
ENCODING 952
SWIDTH 500 0
DWIDTH 9 0
BBX 8 12 0 0
BITMAP
3C
66
C3
C3
C3
FF
FF
C3
C3
C3
66
3C
ENDCHAR
STARTCHAR iota
ENCODING 953
SWIDTH 222 0
DWIDTH 4 0
BBX 3 9 0 0
BITMAP
C0
C0
C0
C0
C0
C0
C0
C0
60
ENDCHAR
STARTCHAR kappa
ENCODING 954
SWIDTH 444 0
DWIDTH 8 0
BBX 7 9 0 0
BITMAP
C6
CC
D8
F0
F0
D8
CC
C6
C6
ENDCHAR
STARTCHAR lambda
ENCODING 955
SWIDTH 500 0
DWIDTH 9 0
BBX 8 12 0 0
BITMAP
60
30
10
18
18
38
2C
2C
64
66
66
C3
ENDCHAR
STARTCHAR uni03BC
ENCODING 956
SWIDTH 500 0
DWIDTH 9 0
BBX 8 12 0 -3
BITMAP
C3
C3
C3
C3
C3
C3
C3
C3
FE
C0
C0
C0
ENDCHAR
STARTCHAR nu
ENCODING 957
SWIDTH 444 0
DWIDTH 8 0
BBX 7 9 0 0
BITMAP
C6
C6
C6
6C
6C
6C
38
38
10
ENDCHAR
STARTCHAR xi
ENCODING 958
SWIDTH 444 0
DWIDTH 8 0
BBX 7 15 0 -3
BITMAP
7E
30
60
60
30
38
60
C0
C0
C0
F0
7C
04
0C
08
ENDCHAR
STARTCHAR omicron
ENCODING 959
SWIDTH 444 0
DWIDTH 8 0
BBX 7 9 0 0
BITMAP
7C
C6
C6
C6
C6
C6
C6
C6
7C
ENDCHAR
STARTCHAR rho
ENCODING 961
SWIDTH 444 0
DWIDTH 8 0
BBX 7 12 0 -3
BITMAP
78
CC
C6
C6
C6
C6
C6
EC
D8
C0
C0
C0
ENDCHAR
STARTCHAR sigma1
ENCODING 962
SWIDTH 389 0
DWIDTH 7 0
BBX 6 12 0 -3
BITMAP
78
CC
C4
C0
C0
C0
C0
C0
70
18
18
30
ENDCHAR
STARTCHAR sigma
ENCODING 963
SWIDTH 556 0
DWIDTH 10 0
BBX 9 9 0 0
BITMAP
7F80
C600
C600
C600
C600
C600
C600
C600
7C00
ENDCHAR
STARTCHAR tau
ENCODING 964
SWIDTH 389 0
DWIDTH 7 0
BBX 6 9 0 0
BITMAP
FC
30
30
30
30
30
30
30
18
ENDCHAR
STARTCHAR upsilon
ENCODING 965
SWIDTH 500 0
DWIDTH 9 0
BBX 8 9 0 0
BITMAP
CC
C6
C3
C3
C3
C3
C3
C6
7C
ENDCHAR
STARTCHAR phi
ENCODING 966
SWIDTH 611 0
DWIDTH 11 0
BBX 10 12 0 -3
BITMAP
2F00
6D80
CCC0
CCC0
CCC0
CCC0
4C80
6D80
3F00
0C00
0C00
0C00
ENDCHAR
STARTCHAR chi
ENCODING 967
SWIDTH 500 0
DWIDTH 9 0
BBX 8 12 0 -3
BITMAP
C3
66
66
3C
18
18
18
3C
24
66
66
C3
ENDCHAR
STARTCHAR psi
ENCODING 968
SWIDTH 611 0
DWIDTH 11 0
BBX 10 14 0 -3
BITMAP
0C00
0C00
CCC0
CCC0
CCC0
CCC0
CCC0
CCC0
CCC0
CCC0
3F00
0C00
0C00
0C00
ENDCHAR
STARTCHAR omega
ENCODING 969
SWIDTH 722 0
DWIDTH 13 0
BBX 12 9 0 0
BITMAP
2040
6060
C630
C630
C630
C630
C630
6F60
39C0
ENDCHAR
STARTCHAR iotadieresis
ENCODING 970
SWIDTH 389 0
DWIDTH 7 0
BBX 6 13 0 0
BITMAP
CC
CC
00
00
30
30
30
30
30
30
30
30
30
ENDCHAR
STARTCHAR upsilondieresis
ENCODING 971
SWIDTH 500 0
DWIDTH 9 0
BBX 8 13 0 0
BITMAP
CC
CC
00
00
CC
C6
C3
C3
C3
C3
C3
C6
7C
ENDCHAR
STARTCHAR omicrontonos
ENCODING 972
SWIDTH 444 0
DWIDTH 8 0
BBX 7 13 0 0
BITMAP
38
30
30
00
7C
C6
C6
C6
C6
C6
C6
C6
7C
ENDCHAR
STARTCHAR upsilontonos
ENCODING 973
SWIDTH 500 0
DWIDTH 9 0
BBX 8 13 0 0
BITMAP
38
30
30
00
CC
C6
C3
C3
C3
C3
C3
C6
7C
ENDCHAR
STARTCHAR omegatonos
ENCODING 974
SWIDTH 722 0
DWIDTH 13 0
BBX 12 13 0 0
BITMAP
0E00
0400
0400
0000
2040
6060
C630
C630
C630
C630
C630
6F60
39C0
ENDCHAR
STARTCHAR uni03D0
ENCODING 976
SWIDTH 444 0
DWIDTH 8 0
BBX 7 13 0 0
BITMAP
7C
C6
C6
C6
C6
C6
DC
C6
C6
C6
C6
C6
7C
ENDCHAR
STARTCHAR theta1
ENCODING 977
SWIDTH 556 0
DWIDTH 10 0
BBX 9 13 0 0
BITMAP
7C00
C600
C200
C300
C300
C300
7F80
0300
0300
E300
6300
3300
1E00
ENDCHAR
STARTCHAR Upsilon1
ENCODING 978
SWIDTH 611 0
DWIDTH 11 0
BBX 10 13 0 0
BITMAP
E1C0
6180
2100
3300
1200
1E00
0C00
0C00
0C00
0C00
0C00
0C00
0C00
ENDCHAR
STARTCHAR uni03D3
ENCODING 979
SWIDTH 722 0
DWIDTH 13 0
BBX 12 13 0 0
BITMAP
D870
8860
8840
0CC0
0480
0780
0300
0300
0300
0300
0300
0300
0300
ENDCHAR
STARTCHAR uni03D4
ENCODING 980
SWIDTH 611 0
DWIDTH 11 0
BBX 10 16 0 0
BITMAP
1200
1200
0000
E1C0
6180
2100
3300
1200
1E00
0C00
0C00
0C00
0C00
0C00
0C00
0C00
ENDCHAR
STARTCHAR phi1
ENCODING 981
SWIDTH 611 0
DWIDTH 11 0
BBX 10 15 0 -3
BITMAP
0C00
0C00
7F80
CCC0
CCC0
CCC0
CCC0
CCC0
CCC0
CCC0
CCC0
7F80
0C00
0C00
0C00
ENDCHAR
STARTCHAR omega1
ENCODING 982
SWIDTH 667 0
DWIDTH 12 0
BBX 11 9 0 0
BITMAP
FFC0
6060
6660
6660
6660
6660
6660
6660
39C0
ENDCHAR
STARTCHAR uni03D7
ENCODING 983
SWIDTH 444 0
DWIDTH 8 0
BBX 7 11 0 -1
BITMAP
C6
66
2C
3C
18
18
3C
66
C2
C6
06
ENDCHAR
STARTCHAR uni03D8
ENCODING 984
SWIDTH 500 0
DWIDTH 9 0
BBX 8 16 0 -3
BITMAP
3C
66
C3
C3
C3
C3
C3
C3
C3
C3
C3
66
3C
18
18
18
ENDCHAR
STARTCHAR uni03D9
ENCODING 985
SWIDTH 500 0
DWIDTH 9 0
BBX 8 13 0 -3
BITMAP
7E
C3
C3
C3
C3
C3
C3
C3
C3
7E
18
18
18
ENDCHAR
STARTCHAR uni03DA
ENCODING 986
SWIDTH 389 0
DWIDTH 7 0
BBX 6 16 0 -3
BITMAP
1C
70
C0
C0
C0
C0
C0
C0
C0
C0
C0
70
1C
0C
0C
1C
ENDCHAR
STARTCHAR uni03DB
ENCODING 987
SWIDTH 389 0
DWIDTH 7 0
BBX 6 12 0 -3
BITMAP
7C
C0
C0
C0
C0
C0
C0
E0
7C
0C
0C
1C
ENDCHAR
STARTCHAR uni03DC
ENCODING 988
SWIDTH 444 0
DWIDTH 8 0
BBX 7 13 0 0
BITMAP
FE
C0
C0
C0
C0
C0
FC
C0
C0
C0
C0
C0
C0
ENDCHAR
STARTCHAR uni03DD
ENCODING 989
SWIDTH 333 0
DWIDTH 6 0
BBX 5 13 0 -3
BITMAP
F8
C0
C0
C0
C0
C0
F8
C0
C0
C0
C0
C0
C0
ENDCHAR
STARTCHAR uni03DE
ENCODING 990
SWIDTH 389 0
DWIDTH 7 0
BBX 6 13 0 0
BITMAP
C0
C0
C0
C0
C0
C0
FC
0C
0C
18
18
30
30
ENDCHAR
STARTCHAR uni03DF
ENCODING 991
SWIDTH 389 0
DWIDTH 7 0
BBX 6 12 0 0
BITMAP
30
30
60
60
C0
FC
0C
18
18
30
30
60
ENDCHAR
STARTCHAR uni03E0
ENCODING 992
SWIDTH 611 0
DWIDTH 11 0
BBX 10 14 0 -2
BITMAP
E000
3000
1800
0C00
0C00
3E00
E300
8180
0F80
38C0
20C0
00C0
00C0
00C0
ENDCHAR
STARTCHAR uni03E1
ENCODING 993
SWIDTH 500 0
DWIDTH 9 0
BBX 8 9 0 0
BITMAP
F0
18
1C
26
46
0B
11
01
01
ENDCHAR
STARTCHAR uni03E2
ENCODING 994
SWIDTH 722 0
DWIDTH 13 0
BBX 12 16 0 -3
BITMAP
C630
C630
C630
C630
C630
C630
C630
C630
C630
C630
C630
C630
79F0
0030
0030
FFE0
ENDCHAR
STARTCHAR uni03E4
ENCODING 996
SWIDTH 500 0
DWIDTH 9 0
BBX 8 13 0 0
BITMAP
33
63
C3
C3
C3
C3
63
3F
03
03
03
03
03
ENDCHAR
STARTCHAR uni03E5
ENCODING 997
SWIDTH 444 0
DWIDTH 8 0
BBX 7 13 0 -3
BITMAP
36
66
C6
C6
C6
C6
C6
C6
66
1E
06
06
06
ENDCHAR
STARTCHAR uni03E6
ENCODING 998
SWIDTH 512 0
DWIDTH 9 0
BBX 7 16 1 -3
BITMAP
C0
C0
C0
C0
C0
DC
E6
C6
C6
C6
C6
C6
C6
06
C6
3C
ENDCHAR
STARTCHAR uni03E7
ENCODING 999
SWIDTH 500 0
DWIDTH 9 0
BBX 8 10 0 0
BITMAP
78
CC
C6
C6
7F
06
06
E6
26
1C
ENDCHAR
STARTCHAR uni03E8
ENCODING 1000
SWIDTH 444 0
DWIDTH 8 0
BBX 7 13 0 0
BITMAP
7C
C6
C6
C6
66
0C
38
60
CC
C6
C6
C6
7C
ENDCHAR
STARTCHAR uni03E9
ENCODING 1001
SWIDTH 389 0
DWIDTH 7 0
BBX 6 13 0 -3
BITMAP
78
CC
CC
CC
CC
78
30
60
C0
C0
CC
CC
78
ENDCHAR
STARTCHAR uni03EB
ENCODING 1003
SWIDTH 500 0
DWIDTH 9 0
BBX 8 10 0 0
BITMAP
C3
66
24
18
18
18
24
66
42
FF
ENDCHAR
STARTCHAR uni03EC
ENCODING 1004
SWIDTH 500 0
DWIDTH 9 0
BBX 8 13 0 0
BITMAP
39
66
C0
C0
FE
C3
C3
C3
C3
C3
C3
C3
7E
ENDCHAR
STARTCHAR uni03ED
ENCODING 1005
SWIDTH 444 0
DWIDTH 8 0
BBX 7 11 0 0
BITMAP
02
7C
C0
C0
DC
E6
C6
C6
C6
E6
7C
ENDCHAR
STARTCHAR uni03EE
ENCODING 1006
SWIDTH 500 0
DWIDTH 9 0
BBX 8 13 0 0
BITMAP
18
18
7E
99
18
18
18
18
18
18
18
18
18
ENDCHAR
STARTCHAR uni03EF
ENCODING 1007
SWIDTH 500 0
DWIDTH 9 0
BBX 8 16 0 -3
BITMAP
18
18
18
7E
99
18
18
18
18
18
18
18
18
18
18
18
ENDCHAR
STARTCHAR uni03F0
ENCODING 1008
SWIDTH 444 0
DWIDTH 8 0
BBX 7 10 0 0
BITMAP
C6
E6
3C
18
18
30
30
70
D8
CE
ENDCHAR
STARTCHAR uni03F1
ENCODING 1009
SWIDTH 444 0
DWIDTH 8 0
BBX 7 13 0 -3
BITMAP
7C
C6
C6
C6
C6
C6
C6
C6
FC
C0
60
30
1C
ENDCHAR
STARTCHAR uni03F2
ENCODING 1010
SWIDTH 444 0
DWIDTH 8 0
BBX 7 10 0 0
BITMAP
7C
C6
C6
C0
C0
C0
C0
C6
C6
7C
ENDCHAR
STARTCHAR uni03F4
ENCODING 1012
SWIDTH 500 0
DWIDTH 9 0
BBX 8 13 0 0
BITMAP
3C
66
C3
C3
C3
C3
FF
C3
C3
C3
C3
66
3C
ENDCHAR
STARTCHAR uni03F5
ENCODING 1013
SWIDTH 444 0
DWIDTH 8 0
BBX 7 10 0 0
BITMAP
7C
C6
C2
C0
C0
FC
C0
C2
C6
7C
ENDCHAR
STARTCHAR uni03F6
ENCODING 1014
SWIDTH 444 0
DWIDTH 8 0
BBX 7 10 0 0
BITMAP
7C
C6
86
06
06
7E
06
86
C6
7C
ENDCHAR
STARTCHAR uni03F7
ENCODING 1015
SWIDTH 444 0
DWIDTH 8 0
BBX 7 13 0 0
BITMAP
C0
C0
C0
FC
C6
C6
C6
C6
C6
FC
C0
C0
C0
ENDCHAR
STARTCHAR uni03F8
ENCODING 1016
SWIDTH 444 0
DWIDTH 8 0
BBX 7 16 0 -3
BITMAP
C0
C0
C0
FC
C6
C6
C6
C6
C6
C6
C6
C6
FC
C0
C0
C0
ENDCHAR
STARTCHAR uni03F9
ENCODING 1017
SWIDTH 500 0
DWIDTH 9 0
BBX 8 13 0 0
BITMAP
3C
66
C3
C3
C0
C0
C0
C0
C0
C3
C3
66
3C
ENDCHAR
STARTCHAR uni03FA
ENCODING 1018
SWIDTH 611 0
DWIDTH 11 0
BBX 10 13 0 0
BITMAP
E1C0
E1C0
F3C0
D2C0
D2C0
D2C0
DEC0
DEC0
CCC0
C0C0
C0C0
C0C0
C0C0
ENDCHAR
STARTCHAR uni03FB
ENCODING 1019
SWIDTH 556 0
DWIDTH 10 0
BBX 9 13 0 -3
BITMAP
C180
E380
E380
E380
F780
D580
D580
D580
DD80
C980
C000
C000
C000
ENDCHAR
STARTCHAR uni03EA
ENCODING 1002
SWIDTH 556 0
DWIDTH 10 0
BBX 9 13 0 0
BITMAP
C180
6300
2200
3600
1400
1C00
1C00
1400
3600
2200
6300
C180
FF80
ENDCHAR
STARTCHAR uni03F3
ENCODING 1011
SWIDTH 222 0
DWIDTH 4 0
BBX 3 16 0 -3
BITMAP
60
60
00
60
60
60
60
60
60
60
60
60
60
60
60
C0
ENDCHAR
STARTCHAR uni03E3
ENCODING 995
SWIDTH 611 0
DWIDTH 11 0
BBX 10 13 0 -3
BITMAP
CCC0
CCC0
CCC0
CCC0
CCC0
CCC0
CCC0
CCC0
CCC0
73C0
00C0
00C0
7F80
ENDCHAR
STARTCHAR uni037E
ENCODING 894
SWIDTH 240 0
DWIDTH 4 0
BBX 2 12 1 -3
BITMAP
C0
C0
00
00
00
00
00
C0
C0
40
40
80
ENDCHAR
STARTCHAR uni037A
ENCODING 890
SWIDTH 278 0
DWIDTH 5 0
BBX 3 3 1 -3
BITMAP
C0
C0
E0
ENDCHAR
STARTCHAR afii10058
ENCODING 1033
SWIDTH 833 0
DWIDTH 15 0
BBX 14 12 0 0
BITMAP
3F80
3180
3180
3180
31F8
318C
318C
318C
318C
318C
318C
E1F8
ENDCHAR
STARTCHAR afii10059
ENCODING 1034
SWIDTH 778 0
DWIDTH 14 0
BBX 13 12 0 0
BITMAP
C300
C300
C300
C3E0
FF30
C318
C318
C318
C318
C318
C330
C3E0
ENDCHAR
STARTCHAR afii10061
ENCODING 1036
SWIDTH 500 0
DWIDTH 9 0
BBX 8 16 0 0
BITMAP
0C
18
30
00
C6
CC
C8
D8
F0
F0
D8
CC
CC
C6
C6
C3
ENDCHAR
STARTCHAR afii10060
ENCODING 1035
SWIDTH 611 0
DWIDTH 11 0
BBX 10 12 0 0
BITMAP
FF80
1800
1800
1F80
18C0
18C0
18C0
18C0
18C0
18C0
18C0
18C0
ENDCHAR
STARTCHAR afii10145
ENCODING 1039
SWIDTH 500 0
DWIDTH 9 0
BBX 8 15 0 -3
BITMAP
C3
C3
C3
C3
C3
C3
C3
C3
C3
C3
C3
FF
18
18
18
ENDCHAR
STARTCHAR afii10099
ENCODING 1106
SWIDTH 463 0
DWIDTH 8 0
BBX 7 15 0 -3
BITMAP
60
60
FC
60
60
7C
66
66
66
66
66
66
06
06
1C
ENDCHAR
STARTCHAR afii10106
ENCODING 1113
SWIDTH 691 0
DWIDTH 12 0
BBX 11 9 0 0
BITMAP
3E00
6600
6600
67C0
6660
6660
6660
6660
E7C0
ENDCHAR
STARTCHAR afii10107
ENCODING 1114
SWIDTH 691 0
DWIDTH 12 0
BBX 11 10 1 0
BITMAP
CC00
CC00
CC00
CC00
FFC0
CC60
CC60
CC60
CC60
CFC0
ENDCHAR
STARTCHAR afii10109
ENCODING 1116
SWIDTH 444 0
DWIDTH 8 0
BBX 7 13 0 0
BITMAP
18
30
60
00
CC
D8
D8
F0
F0
D8
DC
CC
CE
ENDCHAR
STARTCHAR afii10108
ENCODING 1115
SWIDTH 500 0
DWIDTH 9 0
BBX 8 12 0 0
BITMAP
60
60
FC
60
60
7E
63
63
63
63
63
63
ENDCHAR
STARTCHAR afii10193
ENCODING 1119
SWIDTH 444 0
DWIDTH 8 0
BBX 7 13 0 -3
BITMAP
C6
C6
C6
C6
C6
C6
C6
C6
C6
FE
30
30
30
ENDCHAR
STARTCHAR afii10051
ENCODING 1026
SWIDTH 667 0
DWIDTH 12 0
BBX 11 14 0 -2
BITMAP
FF80
1800
1800
1800
1F80
1CC0
1860
1860
1860
1860
1860
1860
00C0
0380
ENDCHAR
STARTCHAR afii10052
ENCODING 1027
SWIDTH 500 0
DWIDTH 9 0
BBX 7 16 1 0
BITMAP
18
30
60
00
FE
C0
C0
C0
C0
C0
C0
C0
C0
C0
C0
C0
ENDCHAR
STARTCHAR afii10100
ENCODING 1107
SWIDTH 333 0
DWIDTH 6 0
BBX 5 13 0 0
BITMAP
18
30
60
00
F8
C0
C0
C0
C0
C0
C0
C0
C0
ENDCHAR
STARTCHAR afii10062
ENCODING 1038
SWIDTH 667 0
DWIDTH 12 0
BBX 11 15 0 0
BITMAP
1200
0C00
0000
E0E0
71C0
3180
3180
1B00
1B00
0A00
0E00
0C00
0C00
0C00
3800
ENDCHAR
STARTCHAR afii10110
ENCODING 1118
SWIDTH 667 0
DWIDTH 12 0
BBX 11 15 0 -3
BITMAP
1100
0E00
0000
E0E0
71C0
3180
3180
1B00
1B00
0A00
0E00
0C00
0C00
0C00
3800
ENDCHAR
STARTCHAR afii10057
ENCODING 1032
SWIDTH 444 0
DWIDTH 8 0
BBX 7 12 0 0
BITMAP
06
06
06
06
06
06
06
06
C6
C6
C6
7C
ENDCHAR
STARTCHAR afii10105
ENCODING 1112
SWIDTH 222 0
DWIDTH 4 0
BBX 3 15 0 -3
BITMAP
60
60
00
60
60
60
60
60
60
60
60
60
60
60
C0
ENDCHAR
STARTCHAR afii10054
ENCODING 1029
SWIDTH 444 0
DWIDTH 8 0
BBX 7 12 0 0
BITMAP
7C
C6
C6
C0
60
38
0C
06
06
C6
C6
7C
ENDCHAR
STARTCHAR afii10102
ENCODING 1109
SWIDTH 444 0
DWIDTH 8 0
BBX 7 9 0 0
BITMAP
7C
C6
C0
C0
7C
06
C6
C6
7C
ENDCHAR
STARTCHAR afii10104
ENCODING 1111
SWIDTH 278 0
DWIDTH 5 0
BBX 4 12 0 0
BITMAP
90
90
00
60
60
60
60
60
60
60
60
60
ENDCHAR
STARTCHAR afii10017
ENCODING 1040
SWIDTH 444 0
DWIDTH 8 0
BBX 7 12 0 0
BITMAP
38
6C
6C
C6
C6
C6
C6
FE
C6
C6
C6
C6
ENDCHAR
STARTCHAR afii10018
ENCODING 1041
SWIDTH 444 0
DWIDTH 8 0
BBX 7 12 0 0
BITMAP
FE
C0
C0
C0
C0
FC
C6
C6
C6
C6
C6
FC
ENDCHAR
STARTCHAR afii10019
ENCODING 1042
SWIDTH 444 0
DWIDTH 8 0
BBX 7 12 0 0
BITMAP
F8
CC
C6
C6
CC
F8
CC
C6
C6
C6
CC
F8
ENDCHAR
STARTCHAR afii10020
ENCODING 1043
SWIDTH 444 0
DWIDTH 8 0
BBX 7 12 0 0
BITMAP
FE
C0
C0
C0
C0
C0
C0
C0
C0
C0
C0
C0
ENDCHAR
STARTCHAR afii10021
ENCODING 1044
SWIDTH 611 0
DWIDTH 11 0
BBX 10 15 0 -3
BITMAP
3F80
3180
3180
3180
3180
3180
3180
3180
6180
6180
6180
FFC0
C0C0
C0C0
C0C0
ENDCHAR
STARTCHAR afii10022
ENCODING 1045
SWIDTH 444 0
DWIDTH 8 0
BBX 7 12 0 0
BITMAP
FE
C0
C0
C0
C0
FC
C0
C0
C0
C0
C0
FE
ENDCHAR
STARTCHAR afii10071
ENCODING 1105
SWIDTH 444 0
DWIDTH 8 0
BBX 7 12 0 0
BITMAP
48
48
00
7C
C6
C6
C6
FC
C0
C2
C6
7C
ENDCHAR
STARTCHAR afii61352
ENCODING 8470
SWIDTH 1000 0
DWIDTH 18 0
BBX 17 12 0 0
BITMAP
C30000
C30000
E30000
F31F00
D33180
DB3180
DB3180
CB3180
CF3180
C71F00
C30000
C33F80
ENDCHAR
STARTCHAR afii10101
ENCODING 1108
SWIDTH 444 0
DWIDTH 8 0
BBX 7 9 0 0
BITMAP
7C
C6
C6
C0
F8
C0
C6
C6
7C
ENDCHAR
STARTCHAR afii10055
ENCODING 1030
SWIDTH 167 0
DWIDTH 3 0
BBX 2 12 0 0
BITMAP
C0
C0
C0
C0
C0
C0
C0
C0
C0
C0
C0
C0
ENDCHAR
STARTCHAR afii10103
ENCODING 1110
SWIDTH 167 0
DWIDTH 3 0
BBX 2 12 0 0
BITMAP
C0
C0
00
C0
C0
C0
C0
C0
C0
C0
C0
C0
ENDCHAR
STARTCHAR afii10098
ENCODING 1169
SWIDTH 333 0
DWIDTH 6 0
BBX 5 11 0 0
BITMAP
18
18
F8
C0
C0
C0
C0
C0
C0
C0
C0
ENDCHAR
STARTCHAR afii10056
ENCODING 1031
SWIDTH 278 0
DWIDTH 5 0
BBX 4 15 0 0
BITMAP
90
90
00
60
60
60
60
60
60
60
60
60
60
60
60
ENDCHAR
STARTCHAR afii10053
ENCODING 1028
SWIDTH 444 0
DWIDTH 8 0
BBX 7 12 0 0
BITMAP
3C
66
C6
C0
C0
FC
C0
C0
C0
C6
66
3C
ENDCHAR
STARTCHAR afii10023
ENCODING 1025
SWIDTH 444 0
DWIDTH 8 0
BBX 7 16 0 0
BITMAP
CC
CC
00
00
FE
C0
C0
C0
C0
FC
C0
C0
C0
C0
C0
FE
ENDCHAR
STARTCHAR afii10050
ENCODING 1168
SWIDTH 444 0
DWIDTH 8 0
BBX 7 15 0 0
BITMAP
06
06
06
FE
C0
C0
C0
C0
C0
C0
C0
C0
C0
C0
C0
ENDCHAR
STARTCHAR afii10024
ENCODING 1046
SWIDTH 833 0
DWIDTH 15 0
BBX 14 12 0 0
BITMAP
6318
3330
3330
1B60
0B40
0FC0
1FE0
3330
3330
6318
4308
C30C
ENDCHAR
STARTCHAR afii10025
ENCODING 1047
SWIDTH 444 0
DWIDTH 8 0
BBX 7 12 0 0
BITMAP
7C
C6
86
06
06
3C
06
06
06
86
C6
7C
ENDCHAR
STARTCHAR afii10026
ENCODING 1048
SWIDTH 500 0
DWIDTH 9 0
BBX 8 12 0 0
BITMAP
C3
C3
C7
CF
CB
DB
DB
D3
F3
E3
C3
C3
ENDCHAR
STARTCHAR afii10027
ENCODING 1049
SWIDTH 500 0
DWIDTH 9 0
BBX 8 15 0 0
BITMAP
24
18
00
C3
C3
C7
CF
CB
DB
DB
D3
F3
E3
C3
C3
ENDCHAR
STARTCHAR afii10028
ENCODING 1050
SWIDTH 500 0
DWIDTH 9 0
BBX 8 12 0 0
BITMAP
C6
CC
C8
D8
F0
F0
D8
CC
CC
C6
C6
C3
ENDCHAR
STARTCHAR afii10029
ENCODING 1051
SWIDTH 556 0
DWIDTH 10 0
BBX 9 12 0 0
BITMAP
3F80
3180
3180
3180
3180
3180
3180
3180
3180
3180
2180
E180
ENDCHAR
STARTCHAR afii10030
ENCODING 1052
SWIDTH 667 0
DWIDTH 12 0
BBX 11 12 0 0
BITMAP
E0E0
E0E0
F1E0
D160
DB60
DB60
DB60
DB60
CA60
CE60
CE60
C460
ENDCHAR
STARTCHAR afii10031
ENCODING 1053
SWIDTH 500 0
DWIDTH 9 0
BBX 8 12 0 0
BITMAP
C3
C3
C3
C3
C3
FF
C3
C3
C3
C3
C3
C3
ENDCHAR
STARTCHAR afii10032
ENCODING 1054
SWIDTH 500 0
DWIDTH 9 0
BBX 8 12 0 0
BITMAP
3C
66
C3
C3
C3
C3
C3
C3
C3
C3
66
3C
ENDCHAR
STARTCHAR afii10033
ENCODING 1055
SWIDTH 500 0
DWIDTH 9 0
BBX 8 12 0 0
BITMAP
FF
C3
C3
C3
C3
C3
C3
C3
C3
C3
C3
C3
ENDCHAR
STARTCHAR afii10034
ENCODING 1056
SWIDTH 444 0
DWIDTH 8 0
BBX 7 12 0 0
BITMAP
F8
C4
C6
C6
C6
C4
F8
C0
C0
C0
C0
C0
ENDCHAR
STARTCHAR afii10035
ENCODING 1057
SWIDTH 444 0
DWIDTH 8 0
BBX 7 12 0 0
BITMAP
3C
66
C6
C0
C0
C0
C0
C0
C0
C6
66
3C
ENDCHAR
STARTCHAR afii10036
ENCODING 1058
SWIDTH 500 0
DWIDTH 9 0
BBX 8 12 0 0
BITMAP
FF
18
18
18
18
18
18
18
18
18
18
18
ENDCHAR
STARTCHAR afii10037
ENCODING 1059
SWIDTH 667 0
DWIDTH 12 0
BBX 11 12 0 0
BITMAP
E0E0
71C0
3180
3180
1B00
1B00
0A00
0E00
0C00
0C00
0C00
3800
ENDCHAR
STARTCHAR afii10038
ENCODING 1060
SWIDTH 611 0
DWIDTH 11 0
BBX 10 13 0 0
BITMAP
0C00
0C00
3F00
6D80
CCC0
CCC0
CCC0
CCC0
CCC0
6D80
3F00
0C00
0C00
ENDCHAR
STARTCHAR afii10039
ENCODING 1061
SWIDTH 500 0
DWIDTH 9 0
BBX 8 12 0 0
BITMAP
C3
C3
66
66
3C
18
18
3C
66
66
C3
C3
ENDCHAR
STARTCHAR afii10040
ENCODING 1062
SWIDTH 556 0
DWIDTH 10 0
BBX 9 15 0 -3
BITMAP
C300
C300
C300
C300
C300
C300
C300
C300
C300
C300
C300
FF80
0180
0180
0180
ENDCHAR
STARTCHAR afii10041
ENCODING 1063
SWIDTH 519 0
DWIDTH 9 0
BBX 8 12 0 0
BITMAP
C3
C3
C3
C3
C3
C3
7F
03
03
03
03
03
ENDCHAR
STARTCHAR afii10042
ENCODING 1064
SWIDTH 722 0
DWIDTH 13 0
BBX 12 12 0 0
BITMAP
C630
C630
C630
C630
C630
C630
C630
C630
C630
C630
C630
FFF0
ENDCHAR
STARTCHAR afii10043
ENCODING 1065
SWIDTH 833 0
DWIDTH 15 0
BBX 14 15 0 -3
BITMAP
C630
C630
C630
C630
C630
C630
C630
C630
C630
C630
C630
FFFC
000C
000C
000C
ENDCHAR
STARTCHAR afii10044
ENCODING 1066
SWIDTH 611 0
DWIDTH 11 0
BBX 10 12 0 0
BITMAP
F800
1800
1800
1800
1800
1F80
18C0
18C0
18C0
18C0
18C0
1F80
ENDCHAR
STARTCHAR afii10045
ENCODING 1067
SWIDTH 611 0
DWIDTH 11 0
BBX 10 12 0 0
BITMAP
C0C0
C0C0
C0C0
C0C0
C0C0
FCC0
C6C0
C6C0
C6C0
C6C0
C6C0
FCC0
ENDCHAR
STARTCHAR afii10046
ENCODING 1068
SWIDTH 444 0
DWIDTH 8 0
BBX 7 12 0 0
BITMAP
C0
C0
C0
C0
C0
FC
C6
C6
C6
C6
C6
FC
ENDCHAR
STARTCHAR afii10047
ENCODING 1069
SWIDTH 444 0
DWIDTH 8 0
BBX 7 12 0 0
BITMAP
78
CC
C6
06
06
3E
06
06
06
C6
CC
78
ENDCHAR
STARTCHAR afii10048
ENCODING 1070
SWIDTH 722 0
DWIDTH 13 0
BBX 12 12 0 0
BITMAP
C7E0
CC30
CC30
CC30
CC30
CC30
FC30
CC30
CC30
CC30
CC30
C7E0
ENDCHAR
STARTCHAR afii10049
ENCODING 1071
SWIDTH 444 0
DWIDTH 8 0
BBX 7 12 0 0
BITMAP
7E
C6
C6
C6
C6
7E
66
C6
C6
C6
C6
C6
ENDCHAR
STARTCHAR afii10065
ENCODING 1072
SWIDTH 444 0
DWIDTH 8 0
BBX 7 9 0 0
BITMAP
7C
C6
06
7E
C6
C6
C6
CE
76
ENDCHAR
STARTCHAR afii10066
ENCODING 1073
SWIDTH 444 0
DWIDTH 8 0
BBX 7 13 0 0
BITMAP
08
38
60
C0
FC
C6
C6
C6
C6
C6
C6
C6
7C
ENDCHAR
STARTCHAR afii10067
ENCODING 1074
SWIDTH 444 0
DWIDTH 8 0
BBX 7 9 0 0
BITMAP
FC
C6
C6
C6
FC
C6
C6
C6
FC
ENDCHAR
STARTCHAR afii10068
ENCODING 1075
SWIDTH 333 0
DWIDTH 6 0
BBX 5 9 0 0
BITMAP
F8
C0
C0
C0
C0
C0
C0
C0
C0
ENDCHAR
STARTCHAR afii10069
ENCODING 1076
SWIDTH 485 0
DWIDTH 8 0
BBX 9 12 0 -3
BITMAP
3F00
3300
3300
3300
2300
6300
6300
6300
FF80
C180
C180
C180
ENDCHAR
STARTCHAR afii10070
ENCODING 1077
SWIDTH 444 0
DWIDTH 8 0
BBX 7 9 0 0
BITMAP
7C
C6
C6
C6
FC
C0
C2
C6
7C
ENDCHAR
STARTCHAR afii10072
ENCODING 1078
SWIDTH 611 0
DWIDTH 11 0
BBX 10 9 0 0
BITMAP
CCC0
6D80
2D00
3F00
3F00
2D00
6D80
4C80
CCC0
ENDCHAR
STARTCHAR afii10073
ENCODING 1079
SWIDTH 444 0
DWIDTH 8 0
BBX 7 9 0 0
BITMAP
7C
C6
86
06
3C
06
86
C6
7C
ENDCHAR
STARTCHAR afii10074
ENCODING 1080
SWIDTH 389 0
DWIDTH 7 0
BBX 7 9 0 0
BITMAP
C6
CE
DE
D6
F6
E6
E6
C6
C6
ENDCHAR
STARTCHAR afii10075
ENCODING 1081
SWIDTH 474 0
DWIDTH 8 0
BBX 7 12 0 0
BITMAP
48
30
00
C6
CE
DE
D6
F6
E6
E6
C6
C6
ENDCHAR
STARTCHAR afii10076
ENCODING 1082
SWIDTH 444 0
DWIDTH 8 0
BBX 7 9 0 0
BITMAP
CC
D8
D0
F0
F0
D8
CC
CC
C6
ENDCHAR
STARTCHAR afii10077
ENCODING 1083
SWIDTH 500 0
DWIDTH 9 0
BBX 8 9 0 0
BITMAP
7F
63
63
63
63
63
63
63
E3
ENDCHAR
STARTCHAR afii10078
ENCODING 1084
SWIDTH 589 0
DWIDTH 10 0
BBX 9 9 1 0
BITMAP
C180
E380
E380
E380
F780
D580
DD80
C980
C980
ENDCHAR
STARTCHAR afii10079
ENCODING 1085
SWIDTH 463 0
DWIDTH 8 0
BBX 7 9 1 0
BITMAP
C6
C6
C6
FE
C6
C6
C6
C6
C6
ENDCHAR
STARTCHAR afii10080
ENCODING 1086
SWIDTH 444 0
DWIDTH 8 0
BBX 7 9 0 0
BITMAP
7C
C6
C6
C6
C6
C6
C6
C6
7C
ENDCHAR
STARTCHAR afii10081
ENCODING 1087
SWIDTH 444 0
DWIDTH 8 0
BBX 7 9 0 0
BITMAP
FE
C6
C6
C6
C6
C6
C6
C6
C6
ENDCHAR
STARTCHAR afii10082
ENCODING 1088
SWIDTH 444 0
DWIDTH 8 0
BBX 7 12 0 -3
BITMAP
F8
CC
C6
C6
C6
C6
C6
CC
F8
C0
C0
C0
ENDCHAR
STARTCHAR afii10083
ENCODING 1089
SWIDTH 444 0
DWIDTH 8 0
BBX 7 9 0 0
BITMAP
7C
C6
C6
C0
C0
C0
C6
C6
7C
ENDCHAR
STARTCHAR afii10084
ENCODING 1090
SWIDTH 500 0
DWIDTH 9 0
BBX 8 9 0 0
BITMAP
FF
18
18
18
18
18
18
18
18
ENDCHAR
STARTCHAR afii10085
ENCODING 1091
SWIDTH 667 0
DWIDTH 12 0
BBX 11 12 0 -3
BITMAP
E0E0
71C0
3180
3180
1B00
1B00
0A00
0E00
0C00
0C00
0C00
3800
ENDCHAR
STARTCHAR afii10086
ENCODING 1092
SWIDTH 722 0
DWIDTH 13 0
BBX 12 14 0 -2
BITMAP
0600
0600
36C0
6F60
C630
C630
C630
C630
C630
C630
6F60
36C0
0600
0600
ENDCHAR
STARTCHAR afii10087
ENCODING 1093
SWIDTH 444 0
DWIDTH 8 0
BBX 7 9 0 0
BITMAP
C6
6C
6C
38
38
6C
6C
C6
C6
ENDCHAR
STARTCHAR afii10088
ENCODING 1094
SWIDTH 500 0
DWIDTH 9 0
BBX 8 12 0 -3
BITMAP
C6
C6
C6
C6
C6
C6
C6
C6
FF
03
03
03
ENDCHAR
STARTCHAR afii10089
ENCODING 1095
SWIDTH 444 0
DWIDTH 8 0
BBX 7 9 0 0
BITMAP
C6
C6
C6
C6
C6
7E
06
06
06
ENDCHAR
STARTCHAR afii10090
ENCODING 1096
SWIDTH 611 0
DWIDTH 11 0
BBX 10 9 0 0
BITMAP
CCC0
CCC0
CCC0
CCC0
CCC0
CCC0
CCC0
CCC0
FFC0
ENDCHAR
STARTCHAR afii10091
ENCODING 1097
SWIDTH 667 0
DWIDTH 12 0
BBX 12 12 0 -3
BITMAP
CCC0
CCC0
CCC0
CCC0
CCC0
CCC0
CCC0
CCC0
FFF0
0030
0030
0030
ENDCHAR
STARTCHAR afii10092
ENCODING 1098
SWIDTH 500 0
DWIDTH 9 0
BBX 8 9 0 0
BITMAP
F0
30
30
3E
33
33
33
33
3E
ENDCHAR
STARTCHAR afii10093
ENCODING 1099
SWIDTH 556 0
DWIDTH 10 0
BBX 9 9 0 0
BITMAP
C180
C180
C180
F980
CD80
CD80
CD80
CD80
F980
ENDCHAR
STARTCHAR afii10094
ENCODING 1100
SWIDTH 389 0
DWIDTH 7 0
BBX 6 9 0 0
BITMAP
C0
C0
C0
F8
CC
CC
CC
CC
F8
ENDCHAR
STARTCHAR afii10095
ENCODING 1101
SWIDTH 444 0
DWIDTH 8 0
BBX 7 9 0 0
BITMAP
7C
C6
C6
06
3E
06
C6
C6
7C
ENDCHAR
STARTCHAR afii10096
ENCODING 1102
SWIDTH 667 0
DWIDTH 12 0
BBX 11 9 0 0
BITMAP
C7C0
CC60
CC60
CC60
FC60
CC60
CC60
CC60
C7C0
ENDCHAR
STARTCHAR afii10097
ENCODING 1103
SWIDTH 444 0
DWIDTH 8 0
BBX 7 9 0 0
BITMAP
3E
66
66
66
3E
36
66
66
C6
ENDCHAR
STARTCHAR notequal
ENCODING 8800
SWIDTH 556 0
DWIDTH 10 0
BBX 9 10 0 1
BITMAP
0180
0300
FF80
FF80
0C00
1800
FF80
FF80
6000
C000
ENDCHAR
STARTCHAR infinity
ENCODING 8734
SWIDTH 667 0
DWIDTH 12 0
BBX 11 5 0 3
BITMAP
71C0
DB60
8E20
DB60
71C0
ENDCHAR
STARTCHAR lessequal
ENCODING 8804
SWIDTH 556 0
DWIDTH 10 0
BBX 9 11 0 0
BITMAP
0380
0E00
3800
6000
C000
6000
3800
0E00
0380
0000
FF80
ENDCHAR
STARTCHAR greaterequal
ENCODING 8805
SWIDTH 600 0
DWIDTH 10 0
BBX 9 11 0 0
BITMAP
E000
3800
0E00
0300
0180
0300
0E00
3800
E000
0000
FF80
ENDCHAR
STARTCHAR partialdiff
ENCODING 8706
SWIDTH 444 0
DWIDTH 8 0
BBX 7 13 0 0
BITMAP
78
0C
06
06
7E
C6
C6
C6
C6
C6
C6
C6
7C
ENDCHAR
STARTCHAR radical
ENCODING 8730
SWIDTH 500 0
DWIDTH 9 0
BBX 10 18 0 -4
BITMAP
00C0
0180
0180
0300
0300
0300
0300
0600
0600
0600
4600
C600
6600
6E00
3C00
3C00
1C00
0800
ENDCHAR
STARTCHAR approxequal
ENCODING 8776
SWIDTH 600 0
DWIDTH 10 0
BBX 9 5 1 3
BITMAP
F180
CF00
0000
F980
CF00
ENDCHAR
STARTCHAR SF100000
ENCODING 9472
SWIDTH 722 0
DWIDTH 13 0
BBX 11 1 1 4
BITMAP
FFE0
ENDCHAR
STARTCHAR SF110000
ENCODING 9474
SWIDTH 167 0
DWIDTH 3 0
BBX 1 19 1 -3
BITMAP
80
80
80
80
80
80
80
80
80
80
80
80
80
80
80
80
80
80
80
ENDCHAR
STARTCHAR SF010000
ENCODING 9484
SWIDTH 444 0
DWIDTH 8 0
BBX 6 10 1 -3
BITMAP
FC
80
80
80
80
80
80
80
80
80
ENDCHAR
STARTCHAR SF030000
ENCODING 9488
SWIDTH 444 0
DWIDTH 8 0
BBX 6 10 1 -3
BITMAP
FC
04
04
04
04
04
04
04
04
04
ENDCHAR
STARTCHAR SF020000
ENCODING 9492
SWIDTH 444 0
DWIDTH 8 0
BBX 6 10 1 4
BITMAP
80
80
80
80
80
80
80
80
80
FC
ENDCHAR
STARTCHAR SF040000
ENCODING 9496
SWIDTH 444 0
DWIDTH 8 0
BBX 6 10 1 4
BITMAP
04
04
04
04
04
04
04
04
04
FC
ENDCHAR
STARTCHAR SF080000
ENCODING 9500
SWIDTH 444 0
DWIDTH 8 0
BBX 6 19 1 -3
BITMAP
80
80
80
80
80
80
80
80
80
FC
80
80
80
80
80
80
80
80
80
ENDCHAR
STARTCHAR SF090000
ENCODING 9508
SWIDTH 444 0
DWIDTH 8 0
BBX 6 19 1 -3
BITMAP
04
04
04
04
04
04
04
04
04
FC
04
04
04
04
04
04
04
04
04
ENDCHAR
STARTCHAR SF060000
ENCODING 9516
SWIDTH 722 0
DWIDTH 13 0
BBX 11 10 1 -3
BITMAP
FFE0
0400
0400
0400
0400
0400
0400
0400
0400
0400
ENDCHAR
STARTCHAR SF070000
ENCODING 9524
SWIDTH 722 0
DWIDTH 13 0
BBX 11 10 1 4
BITMAP
0400
0400
0400
0400
0400
0400
0400
0400
0400
FFE0
ENDCHAR
STARTCHAR SF050000
ENCODING 9532
SWIDTH 722 0
DWIDTH 13 0
BBX 11 19 1 -3
BITMAP
0400
0400
0400
0400
0400
0400
0400
0400
0400
FFE0
0400
0400
0400
0400
0400
0400
0400
0400
0400
ENDCHAR
STARTCHAR upblock
ENCODING 9600
SWIDTH 722 0
DWIDTH 13 0
BBX 11 9 1 5
BITMAP
FFE0
FFE0
FFE0
FFE0
FFE0
FFE0
FFE0
FFE0
FFE0
ENDCHAR
STARTCHAR dnblock
ENCODING 9604
SWIDTH 722 0
DWIDTH 13 0
BBX 11 10 1 -3
BITMAP
FFE0
FFE0
FFE0
FFE0
FFE0
FFE0
FFE0
FFE0
FFE0
FFE0
ENDCHAR
STARTCHAR block
ENCODING 9608
SWIDTH 722 0
DWIDTH 13 0
BBX 11 19 1 -3
BITMAP
FFE0
FFE0
FFE0
FFE0
FFE0
FFE0
FFE0
FFE0
FFE0
FFE0
FFE0
FFE0
FFE0
FFE0
FFE0
FFE0
FFE0
FFE0
FFE0
ENDCHAR
STARTCHAR lfblock
ENCODING 9612
SWIDTH 389 0
DWIDTH 7 0
BBX 5 19 1 -3
BITMAP
F8
F8
F8
F8
F8
F8
F8
F8
F8
F8
F8
F8
F8
F8
F8
F8
F8
F8
F8
ENDCHAR
STARTCHAR rtblock
ENCODING 9616
SWIDTH 444 0
DWIDTH 8 0
BBX 6 19 1 -3
BITMAP
FC
FC
FC
FC
FC
FC
FC
FC
FC
FC
FC
FC
FC
FC
FC
FC
FC
FC
FC
ENDCHAR
STARTCHAR ltshade
ENCODING 9617
SWIDTH 611 0
DWIDTH 11 0
BBX 9 19 1 -3
BITMAP
9100
0000
2480
0000
9100
0000
2480
0000
9100
0000
2480
0000
9100
0000
2480
0000
9100
0000
2480
ENDCHAR
STARTCHAR shade
ENCODING 9618
SWIDTH 667 0
DWIDTH 12 0
BBX 10 19 1 -3
BITMAP
5500
AA80
5540
AA80
5540
AA80
5540
AA80
5540
AA80
5540
AA80
5540
AA80
5540
AA80
5540
AA80
5540
ENDCHAR
STARTCHAR dkshade
ENCODING 9619
SWIDTH 667 0
DWIDTH 12 0
BBX 10 18 1 -3
BITMAP
5540
FFC0
AA80
FFC0
5540
FFC0
AA80
FFC0
5540
FFC0
AA80
FFC0
5540
FFC0
AA80
FFC0
5540
FFC0
ENDCHAR
STARTCHAR integraltp
ENCODING 8992
SWIDTH 500 0
DWIDTH 9 0
BBX 7 19 1 -3
BITMAP
1E
36
60
C0
C0
C0
C0
C0
C0
C0
C0
C0
C0
C0
C0
C0
C0
C0
C0
ENDCHAR
STARTCHAR filledbox
ENCODING 9632
SWIDTH 834 0
DWIDTH 15 0
BBX 13 12 1 0
BITMAP
FFF8
FFF8
FFF8
FFF8
FFF8
FFF8
FFF8
FFF8
FFF8
FFF8
FFF8
FFF8
ENDCHAR
STARTCHAR integralbt
ENCODING 8993
SWIDTH 500 0
DWIDTH 9 0
BBX 7 21 1 -4
BITMAP
06
06
06
06
06
06
06
06
06
06
06
06
06
06
06
06
06
06
CC
D8
70
ENDCHAR
STARTCHAR SF430000
ENCODING 9552
SWIDTH 722 0
DWIDTH 13 0
BBX 11 3 1 3
BITMAP
FFE0
0000
FFE0
ENDCHAR
STARTCHAR SF240000
ENCODING 9553
SWIDTH 333 0
DWIDTH 6 0
BBX 4 19 1 -3
BITMAP
D0
D0
D0
D0
D0
D0
D0
D0
D0
D0
D0
D0
D0
D0
D0
D0
D0
D0
D0
ENDCHAR
STARTCHAR SF510000
ENCODING 9554
SWIDTH 444 0
DWIDTH 8 0
BBX 6 12 1 -3
BITMAP
FC
FC
80
FC
80
80
80
80
80
80
80
80
ENDCHAR
STARTCHAR SF520000
ENCODING 9555
SWIDTH 556 0
DWIDTH 10 0
BBX 8 10 1 -3
BITMAP
FF
D0
D0
D0
D0
D0
D0
D0
D0
D0
ENDCHAR
STARTCHAR SF390000
ENCODING 9556
SWIDTH 556 0
DWIDTH 10 0
BBX 8 12 1 -3
BITMAP
FF
FF
C0
DF
D0
D0
D0
D0
D0
D0
D0
D0
ENDCHAR
STARTCHAR SF220000
ENCODING 9557
SWIDTH 444 0
DWIDTH 8 0
BBX 6 12 1 -3
BITMAP
FC
FC
04
FC
04
04
04
04
04
04
04
04
ENDCHAR
STARTCHAR SF210000
ENCODING 9558
SWIDTH 500 0
DWIDTH 9 0
BBX 7 10 1 -3
BITMAP
FE
1A
1A
1A
1A
1A
1A
1A
1A
1A
ENDCHAR
STARTCHAR SF250000
ENCODING 9559
SWIDTH 500 0
DWIDTH 9 0
BBX 7 12 1 -3
BITMAP
FE
FE
02
FA
1A
1A
1A
1A
1A
1A
1A
1A
ENDCHAR
STARTCHAR SF500000
ENCODING 9560
SWIDTH 444 0
DWIDTH 8 0
BBX 6 11 1 3
BITMAP
80
80
80
80
80
80
80
FC
FC
80
FC
ENDCHAR
STARTCHAR SF490000
ENCODING 9561
SWIDTH 556 0
DWIDTH 10 0
BBX 8 10 1 4
BITMAP
D0
D0
D0
D0
D0
D0
D0
D0
D0
FF
ENDCHAR
STARTCHAR SF380000
ENCODING 9562
SWIDTH 556 0
DWIDTH 10 0
BBX 8 11 1 3
BITMAP
D0
D0
D0
D0
D0
D0
D0
DF
DF
C0
FF
ENDCHAR
STARTCHAR SF280000
ENCODING 9563
SWIDTH 444 0
DWIDTH 8 0
BBX 6 11 1 3
BITMAP
04
04
04
04
04
04
04
FC
FC
04
FC
ENDCHAR
STARTCHAR SF270000
ENCODING 9564
SWIDTH 500 0
DWIDTH 9 0
BBX 7 10 1 4
BITMAP
1A
1A
1A
1A
1A
1A
1A
1A
1A
FE
ENDCHAR
STARTCHAR SF260000
ENCODING 9565
SWIDTH 444 0
DWIDTH 8 0
BBX 7 11 0 3
BITMAP
1A
1A
1A
1A
1A
1A
1A
FA
FA
02
FE
ENDCHAR
STARTCHAR SF360000
ENCODING 9566
SWIDTH 444 0
DWIDTH 8 0
BBX 6 19 1 -3
BITMAP
80
80
80
80
80
80
80
FC
FC
80
FC
80
80
80
80
80
80
80
80
ENDCHAR
STARTCHAR SF370000
ENCODING 9567
SWIDTH 556 0
DWIDTH 10 0
BBX 8 19 1 -3
BITMAP
D0
D0
D0
D0
D0
D0
D0
D0
D0
DF
D0
D0
D0
D0
D0
D0
D0
D0
D0
ENDCHAR
STARTCHAR SF420000
ENCODING 9568
SWIDTH 556 0
DWIDTH 10 0
BBX 8 19 1 -3
BITMAP
D0
D0
D0
D0
D0
D0
D0
DF
DF
C0
DF
D0
D0
D0
D0
D0
D0
D0
D0
ENDCHAR
STARTCHAR SF190000
ENCODING 9569
SWIDTH 444 0
DWIDTH 8 0
BBX 6 19 1 -3
BITMAP
04
04
04
04
04
04
04
FC
FC
04
FC
04
04
04
04
04
04
04
04
ENDCHAR
STARTCHAR SF200000
ENCODING 9570
SWIDTH 500 0
DWIDTH 9 0
BBX 7 19 1 -3
BITMAP
1A
1A
1A
1A
1A
1A
1A
1A
1A
FA
1A
1A
1A
1A
1A
1A
1A
1A
1A
ENDCHAR
STARTCHAR SF230000
ENCODING 9571
SWIDTH 500 0
DWIDTH 9 0
BBX 7 19 1 -3
BITMAP
1A
1A
1A
1A
1A
1A
1A
FA
FA
02
FA
1A
1A
1A
1A
1A
1A
1A
1A
ENDCHAR
STARTCHAR SF470000
ENCODING 9572
SWIDTH 722 0
DWIDTH 13 0
BBX 11 12 1 -3
BITMAP
FFE0
FFE0
0000
FFE0
0400
0400
0400
0400
0400
0400
0400
0400
ENDCHAR
STARTCHAR SF480000
ENCODING 9573
SWIDTH 722 0
DWIDTH 13 0
BBX 11 10 1 -3
BITMAP
FFE0
1A00
1A00
1A00
1A00
1A00
1A00
1A00
1A00
1A00
ENDCHAR
STARTCHAR SF410000
ENCODING 9574
SWIDTH 722 0
DWIDTH 13 0
BBX 11 12 1 -3
BITMAP
FFE0
FFE0
0000
FBE0
1A00
1A00
1A00
1A00
1A00
1A00
1A00
1A00
ENDCHAR
STARTCHAR SF450000
ENCODING 9575
SWIDTH 722 0
DWIDTH 13 0
BBX 11 11 1 3
BITMAP
0400
0400
0400
0400
0400
0400
0400
FFE0
FFE0
0000
FFE0
ENDCHAR
STARTCHAR SF460000
ENCODING 9576
SWIDTH 722 0
DWIDTH 13 0
BBX 11 10 1 4
BITMAP
1A00
1A00
1A00
1A00
1A00
1A00
1A00
1A00
1A00
FFE0
ENDCHAR
STARTCHAR SF400000
ENCODING 9577
SWIDTH 722 0
DWIDTH 13 0
BBX 11 11 1 3
BITMAP
1A00
1A00
1A00
1A00
1A00
1A00
1A00
FBE0
FBE0
0000
FFE0
ENDCHAR
STARTCHAR SF540000
ENCODING 9578
SWIDTH 722 0
DWIDTH 13 0
BBX 11 19 1 -3
BITMAP
0400
0400
0400
0400
0400
0400
0400
FFE0
FFE0
0400
FFE0
0400
0400
0400
0400
0400
0400
0400
0400
ENDCHAR
STARTCHAR SF530000
ENCODING 9579
SWIDTH 722 0
DWIDTH 13 0
BBX 11 19 1 -1
BITMAP
1A00
1A00
1A00
1A00
1A00
1A00
1A00
1A00
1A00
FFE0
1A00
1A00
1A00
1A00
1A00
1A00
1A00
1A00
1A00
ENDCHAR
STARTCHAR SF440000
ENCODING 9580
SWIDTH 722 0
DWIDTH 13 0
BBX 11 19 1 -3
BITMAP
1A00
1A00
1A00
1A00
1A00
1A00
1A00
FBE0
FBE0
0000
FBE0
1A00
1A00
1A00
1A00
1A00
1A00
1A00
1A00
ENDCHAR
STARTCHAR Gbreve
ENCODING 286
SWIDTH 500 0
DWIDTH 9 0
BBX 8 16 0 0
BITMAP
63
36
1C
00
3E
63
C3
C0
C0
C0
CF
C3
C3
C3
67
3E
ENDCHAR
STARTCHAR Idotaccent
ENCODING 304
SWIDTH 167 0
DWIDTH 3 0
BBX 2 15 0 0
BITMAP
C0
C0
00
C0
C0
C0
C0
C0
C0
C0
C0
C0
C0
C0
C0
ENDCHAR
STARTCHAR Scedilla
ENCODING 350
SWIDTH 444 0
DWIDTH 8 0
BBX 7 15 0 -3
BITMAP
7C
C6
C6
C0
60
38
0C
06
06
C6
C6
7C
18
18
70
ENDCHAR
STARTCHAR gbreve
ENCODING 287
SWIDTH 444 0
DWIDTH 8 0
BBX 7 16 0 -3
BITMAP
C6
6C
38
00
7C
C6
C6
C6
C6
C6
C6
C6
7E
06
0E
7C
ENDCHAR
STARTCHAR scedilla
ENCODING 351
SWIDTH 444 0
DWIDTH 8 0
BBX 7 12 0 -3
BITMAP
7C
C6
C0
C0
7C
06
C6
C6
7C
18
18
70
ENDCHAR
STARTCHAR Aogonek
ENCODING 260
SWIDTH 556 0
DWIDTH 10 0
BBX 9 15 0 -3
BITMAP
3800
6C00
6C00
C600
C600
C600
C600
FE00
C600
C600
C600
C600
0600
0600
0780
ENDCHAR
STARTCHAR Sacute
ENCODING 346
SWIDTH 444 0
DWIDTH 8 0
BBX 7 16 0 0
BITMAP
0C
18
30
00
7C
C6
C6
C0
60
38
0C
06
06
C6
C6
7C
ENDCHAR
STARTCHAR Tcaron
ENCODING 356
SWIDTH 500 0
DWIDTH 9 0
BBX 8 16 0 0
BITMAP
66
3C
18
00
FF
18
18
18
18
18
18
18
18
18
18
18
ENDCHAR
STARTCHAR Zacute
ENCODING 377
SWIDTH 500 0
DWIDTH 9 0
BBX 8 16 0 0
BITMAP
0C
18
30
00
FF
07
06
0C
0C
18
18
30
30
60
E0
FF
ENDCHAR
STARTCHAR sacute
ENCODING 347
SWIDTH 444 0
DWIDTH 8 0
BBX 7 13 0 0
BITMAP
0C
18
30
00
7C
C6
C0
C0
7C
06
C6
C6
7C
ENDCHAR
STARTCHAR tcaron
ENCODING 357
SWIDTH 389 0
DWIDTH 7 0
BBX 6 13 0 0
BITMAP
0C
0C
6C
60
F0
60
60
60
60
60
60
60
30
ENDCHAR
STARTCHAR zacute
ENCODING 378
SWIDTH 444 0
DWIDTH 8 0
BBX 7 13 0 0
BITMAP
0C
18
30
00
FE
06
0C
18
30
30
60
C0
FC
ENDCHAR
STARTCHAR Zdotaccent
ENCODING 379
SWIDTH 500 0
DWIDTH 9 0
BBX 8 15 0 0
BITMAP
18
18
00
FF
07
06
0C
0C
18
18
30
30
60
E0
FF
ENDCHAR
STARTCHAR aogonek
ENCODING 261
SWIDTH 556 0
DWIDTH 10 0
BBX 9 12 0 -3
BITMAP
7C00
C600
0600
7E00
C600
C600
C600
CE00
7600
0600
0600
0780
ENDCHAR
STARTCHAR Lcaron
ENCODING 317
SWIDTH 444 0
DWIDTH 8 0
BBX 7 12 0 0
BITMAP
CC
CC
CC
C0
C0
C0
C0
C0
C0
C0
C0
FE
ENDCHAR
STARTCHAR lcaron
ENCODING 318
SWIDTH 333 0
DWIDTH 6 0
BBX 5 12 0 0
BITMAP
D8
D8
D8
C0
C0
C0
C0
C0
C0
C0
C0
C0
ENDCHAR
STARTCHAR zdotaccent
ENCODING 380
SWIDTH 444 0
DWIDTH 8 0
BBX 7 12 0 0
BITMAP
30
30
00
FE
06
0C
18
30
30
60
C0
FC
ENDCHAR
STARTCHAR Racute
ENCODING 340
SWIDTH 444 0
DWIDTH 8 0
BBX 7 16 0 0
BITMAP
0C
18
30
00
FC
C6
C6
C6
C6
FC
CC
C6
C6
C6
C6
C6
ENDCHAR
STARTCHAR Abreve
ENCODING 258
SWIDTH 444 0
DWIDTH 8 0
BBX 7 16 0 0
BITMAP
C6
6C
38
00
38
6C
6C
C6
C6
C6
C6
FE
C6
C6
C6
C6
ENDCHAR
STARTCHAR Lacute
ENCODING 313
SWIDTH 444 0
DWIDTH 8 0
BBX 7 16 0 0
BITMAP
30
60
C0
00
C0
C0
C0
C0
C0
C0
C0
C0
C0
C0
C0
FE
ENDCHAR
STARTCHAR Cacute
ENCODING 262
SWIDTH 444 0
DWIDTH 8 0
BBX 7 16 0 0
BITMAP
0C
18
30
00
3C
66
C6
C0
C0
C0
C0
C0
C0
C6
66
3C
ENDCHAR
STARTCHAR Ccaron
ENCODING 268
SWIDTH 444 0
DWIDTH 8 0
BBX 7 16 0 0
BITMAP
66
3C
18
00
3C
66
C6
C0
C0
C0
C0
C0
C0
C6
66
3C
ENDCHAR
STARTCHAR Eogonek
ENCODING 280
SWIDTH 500 0
DWIDTH 9 0
BBX 8 15 0 -3
BITMAP
FE
C0
C0
C0
C0
FC
C0
C0
C0
C0
C0
FE
0C
0C
0F
ENDCHAR
STARTCHAR Ecaron
ENCODING 282
SWIDTH 444 0
DWIDTH 8 0
BBX 7 16 0 0
BITMAP
CC
78
30
00
FE
C0
C0
C0
C0
FC
C0
C0
C0
C0
C0
FE
ENDCHAR
STARTCHAR Dcaron
ENCODING 270
SWIDTH 500 0
DWIDTH 9 0
BBX 7 16 0 0
BITMAP
66
3C
18
00
F8
CC
C6
C6
C6
C6
C6
C6
C6
C6
CC
F8
ENDCHAR
STARTCHAR Dcroat
ENCODING 272
SWIDTH 556 0
DWIDTH 10 0
BBX 8 12 0 0
BITMAP
7C
66
63
63
63
63
F3
63
63
63
66
7C
ENDCHAR
STARTCHAR Nacute
ENCODING 323
SWIDTH 500 0
DWIDTH 9 0
BBX 8 16 0 0
BITMAP
0C
18
30
00
C3
C3
E3
F3
D3
DB
DB
CB
CF
C7
C3
C3
ENDCHAR
STARTCHAR Ncaron
ENCODING 327
SWIDTH 500 0
DWIDTH 9 0
BBX 8 16 0 0
BITMAP
66
3C
18
00
C3
C3
E3
F3
D3
DB
DB
CB
CF
C7
C3
C3
ENDCHAR
STARTCHAR Ohungarumlaut
ENCODING 336
SWIDTH 500 0
DWIDTH 9 0
BBX 8 16 0 0
BITMAP
36
24
6C
00
3C
66
C3
C3
C3
C3
C3
C3
C3
C3
66
3C
ENDCHAR
STARTCHAR Rcaron
ENCODING 344
SWIDTH 444 0
DWIDTH 8 0
BBX 7 16 0 0
BITMAP
CC
78
30
00
FC
C6
C6
C6
C6
FC
CC
C6
C6
C6
C6
C6
ENDCHAR
STARTCHAR Uring
ENCODING 366
SWIDTH 556 0
DWIDTH 10 0
BBX 9 16 0 0
BITMAP
1C00
3600
2200
3600
DD80
C180
C180
C180
C180
C180
C180
C180
C180
C180
C180
7F00
ENDCHAR
STARTCHAR Uhungarumlaut
ENCODING 368
SWIDTH 556 0
DWIDTH 10 0
BBX 9 16 0 0
BITMAP
1B00
1200
3600
0000
C180
C180
C180
C180
C180
C180
C180
C180
C180
C180
C180
7F00
ENDCHAR
STARTCHAR Tcommaaccent
ENCODING 354
SWIDTH 500 0
DWIDTH 9 0
BBX 8 15 0 -3
BITMAP
FF
18
18
18
18
18
18
18
18
18
18
18
00
18
30
ENDCHAR
STARTCHAR racute
ENCODING 341
SWIDTH 333 0
DWIDTH 6 0
BBX 5 13 0 0
BITMAP
18
30
60
00
D8
F8
E0
C0
C0
C0
C0
C0
C0
ENDCHAR
STARTCHAR abreve
ENCODING 259
SWIDTH 444 0
DWIDTH 8 0
BBX 7 13 0 0
BITMAP
C6
6C
38
00
7C
C6
06
7E
C6
C6
C6
CE
76
ENDCHAR
STARTCHAR lacute
ENCODING 314
SWIDTH 278 0
DWIDTH 5 0
BBX 4 16 0 0
BITMAP
30
60
C0
00
C0
C0
C0
C0
C0
C0
C0
C0
C0
C0
C0
C0
ENDCHAR
STARTCHAR cacute
ENCODING 263
SWIDTH 444 0
DWIDTH 8 0
BBX 7 13 0 0
BITMAP
0C
18
30
00
7C
C6
C6
C0
C0
C0
C6
C6
7C
ENDCHAR
STARTCHAR ccaron
ENCODING 269
SWIDTH 444 0
DWIDTH 8 0
BBX 7 13 0 0
BITMAP
66
3C
18
00
7C
C6
C6
C0
C0
C0
C6
C6
7C
ENDCHAR
STARTCHAR eogonek
ENCODING 281
SWIDTH 444 0
DWIDTH 8 0
BBX 7 12 0 -3
BITMAP
7C
C6
C6
C6
FC
C0
C2
C6
7C
18
18
1E
ENDCHAR
STARTCHAR ecaron
ENCODING 283
SWIDTH 444 0
DWIDTH 8 0
BBX 7 13 0 0
BITMAP
66
3C
18
00
7C
C6
C6
C6
FC
C0
C2
C6
7C
ENDCHAR
STARTCHAR dcaron
ENCODING 271
SWIDTH 611 0
DWIDTH 11 0
BBX 10 12 0 0
BITMAP
06C0
06C0
06C0
3E00
6600
C600
C600
C600
C600
C600
6600
3E00
ENDCHAR
STARTCHAR dcroat
ENCODING 273
SWIDTH 500 0
DWIDTH 9 0
BBX 8 13 0 0
BITMAP
06
06
0F
06
3E
66
C6
C6
C6
C6
C6
66
3E
ENDCHAR
STARTCHAR nacute
ENCODING 324
SWIDTH 444 0
DWIDTH 8 0
BBX 7 13 0 0
BITMAP
0C
18
30
00
7C
EE
C6
C6
C6
C6
C6
C6
C6
ENDCHAR
STARTCHAR ncaron
ENCODING 328
SWIDTH 444 0
DWIDTH 8 0
BBX 7 13 0 0
BITMAP
66
3C
18
00
7C
EE
C6
C6
C6
C6
C6
C6
C6
ENDCHAR
STARTCHAR ohungarumlaut
ENCODING 337
SWIDTH 444 0
DWIDTH 8 0
BBX 7 13 0 0
BITMAP
36
24
6C
00
7C
C6
C6
C6
C6
C6
C6
C6
7C
ENDCHAR
STARTCHAR rcaron
ENCODING 345
SWIDTH 389 0
DWIDTH 7 0
BBX 6 13 0 0
BITMAP
CC
78
30
00
6C
7C
70
60
60
60
60
60
60
ENDCHAR
STARTCHAR uring
ENCODING 367
SWIDTH 444 0
DWIDTH 8 0
BBX 7 15 0 0
BITMAP
38
6C
44
6C
38
00
C6
C6
C6
C6
C6
C6
C6
C6
7C
ENDCHAR
STARTCHAR uhungarumlaut
ENCODING 369
SWIDTH 444 0
DWIDTH 8 0
BBX 7 13 0 0
BITMAP
36
24
6C
00
C6
C6
C6
C6
C6
C6
C6
C6
7C
ENDCHAR
STARTCHAR tcommaaccent
ENCODING 355
SWIDTH 278 0
DWIDTH 5 0
BBX 4 14 0 -3
BITMAP
60
60
F0
60
60
60
60
60
60
60
30
00
60
C0
ENDCHAR
STARTCHAR Iogonek
ENCODING 302
SWIDTH 278 0
DWIDTH 5 0
BBX 4 15 0 -3
BITMAP
C0
C0
C0
C0
C0
C0
C0
C0
C0
C0
C0
C0
C0
C0
F0
ENDCHAR
STARTCHAR Amacron
ENCODING 256
SWIDTH 444 0
DWIDTH 8 0
BBX 7 15 0 0
BITMAP
7C
7C
00
38
6C
6C
C6
C6
C6
C6
FE
C6
C6
C6
C6
ENDCHAR
STARTCHAR iogonek
ENCODING 303
SWIDTH 278 0
DWIDTH 5 0
BBX 4 15 0 -3
BITMAP
C0
C0
00
C0
C0
C0
C0
C0
C0
C0
C0
C0
C0
C0
F0
ENDCHAR
STARTCHAR amacron
ENCODING 257
SWIDTH 444 0
DWIDTH 8 0
BBX 7 12 0 0
BITMAP
7C
7C
00
7C
C6
06
7E
C6
C6
C6
CE
76
ENDCHAR
STARTCHAR Emacron
ENCODING 274
SWIDTH 444 0
DWIDTH 8 0
BBX 7 15 0 0
BITMAP
7C
7C
00
FE
C0
C0
C0
C0
FC
C0
C0
C0
C0
C0
FE
ENDCHAR
STARTCHAR emacron
ENCODING 275
SWIDTH 444 0
DWIDTH 8 0
BBX 7 12 0 0
BITMAP
7C
7C
00
7C
C6
C6
C6
FC
C0
C2
C6
7C
ENDCHAR
STARTCHAR Edotaccent
ENCODING 278
SWIDTH 444 0
DWIDTH 8 0
BBX 7 15 0 0
BITMAP
30
30
00
FE
C0
C0
C0
C0
FC
C0
C0
C0
C0
C0
FE
ENDCHAR
STARTCHAR Gcommaaccent
ENCODING 290
SWIDTH 500 0
DWIDTH 9 0
BBX 8 15 0 -3
BITMAP
3E
63
C3
C0
C0
C0
CF
C3
C3
C3
67
3E
00
18
30
ENDCHAR
STARTCHAR Kcommaaccent
ENCODING 310
SWIDTH 500 0
DWIDTH 9 0
BBX 8 15 0 -3
BITMAP
C6
CC
C8
D8
F0
F0
D8
CC
CC
C6
C6
C3
00
18
30
ENDCHAR
STARTCHAR Imacron
ENCODING 298
SWIDTH 333 0
DWIDTH 6 0
BBX 5 15 0 0
BITMAP
F8
F8
00
60
60
60
60
60
60
60
60
60
60
60
60
ENDCHAR
STARTCHAR Lcommaaccent
ENCODING 315
SWIDTH 444 0
DWIDTH 8 0
BBX 7 15 0 -3
BITMAP
C0
C0
C0
C0
C0
C0
C0
C0
C0
C0
C0
FE
00
30
60
ENDCHAR
STARTCHAR edotaccent
ENCODING 279
SWIDTH 444 0
DWIDTH 8 0
BBX 7 12 0 0
BITMAP
30
30
00
7C
C6
C6
C6
FC
C0
C2
C6
7C
ENDCHAR
STARTCHAR gcommaaccent
ENCODING 291
SWIDTH 444 0
DWIDTH 8 0
BBX 7 15 0 -3
BITMAP
0C
18
00
7C
C6
C6
C6
C6
C6
C6
C6
7E
06
0E
7C
ENDCHAR
STARTCHAR kcommaaccent
ENCODING 311
SWIDTH 444 0
DWIDTH 8 0
BBX 7 15 0 -3
BITMAP
C0
C0
C0
CC
D8
D8
F0
F0
D8
DC
CC
CE
00
30
60
ENDCHAR
STARTCHAR imacron
ENCODING 299
SWIDTH 333 0
DWIDTH 6 0
BBX 5 12 0 0
BITMAP
F8
F8
00
60
60
60
60
60
60
60
60
60
ENDCHAR
STARTCHAR lcommaaccent
ENCODING 316
SWIDTH 222 0
DWIDTH 4 0
BBX 3 15 0 -3
BITMAP
60
60
60
60
60
60
60
60
60
60
60
60
00
60
C0
ENDCHAR
STARTCHAR Ncommaaccent
ENCODING 325
SWIDTH 500 0
DWIDTH 9 0
BBX 8 15 0 -3
BITMAP
C3
C3
E3
F3
D3
DB
DB
CB
CF
C7
C3
C3
00
18
30
ENDCHAR
STARTCHAR Omacron
ENCODING 332
SWIDTH 500 0
DWIDTH 9 0
BBX 8 15 0 0
BITMAP
3E
3E
00
3C
66
C3
C3
C3
C3
C3
C3
C3
C3
66
3C
ENDCHAR
STARTCHAR Uogonek
ENCODING 370
SWIDTH 556 0
DWIDTH 10 0
BBX 9 15 0 -3
BITMAP
C180
C180
C180
C180
C180
C180
C180
C180
C180
C180
C180
7F00
1800
1800
1E00
ENDCHAR
STARTCHAR Umacron
ENCODING 362
SWIDTH 556 0
DWIDTH 10 0
BBX 9 15 0 0
BITMAP
3E00
3E00
0000
C180
C180
C180
C180
C180
C180
C180
C180
C180
C180
C180
7F00
ENDCHAR
STARTCHAR ncommaaccent
ENCODING 326
SWIDTH 444 0
DWIDTH 8 0
BBX 7 12 0 -3
BITMAP
7C
EE
C6
C6
C6
C6
C6
C6
C6
00
18
30
ENDCHAR
STARTCHAR omacron
ENCODING 333
SWIDTH 444 0
DWIDTH 8 0
BBX 7 12 0 0
BITMAP
7C
7C
00
7C
C6
C6
C6
C6
C6
C6
C6
7C
ENDCHAR
STARTCHAR uogonek
ENCODING 371
SWIDTH 444 0
DWIDTH 8 0
BBX 7 12 0 -3
BITMAP
C6
C6
C6
C6
C6
C6
C6
C6
7C
30
30
3C
ENDCHAR
STARTCHAR umacron
ENCODING 363
SWIDTH 444 0
DWIDTH 8 0
BBX 7 12 0 0
BITMAP
7C
7C
00
C6
C6
C6
C6
C6
C6
C6
C6
7C
ENDCHAR
STARTCHAR Rcommaaccent
ENCODING 342
SWIDTH 444 0
DWIDTH 8 0
BBX 7 15 0 -3
BITMAP
FC
C6
C6
C6
C6
FC
CC
C6
C6
C6
C6
C6
00
18
30
ENDCHAR
STARTCHAR rcommaaccent
ENCODING 343
SWIDTH 333 0
DWIDTH 6 0
BBX 5 12 0 -3
BITMAP
D8
F8
E0
C0
C0
C0
C0
C0
C0
00
60
C0
ENDCHAR
STARTCHAR Ccircumflex
ENCODING 264
SWIDTH 444 0
DWIDTH 8 0
BBX 7 16 0 0
BITMAP
18
3C
66
00
3C
66
C6
C0
C0
C0
C0
C0
C0
C6
66
3C
ENDCHAR
STARTCHAR ccircumflex
ENCODING 265
SWIDTH 444 0
DWIDTH 8 0
BBX 7 13 0 0
BITMAP
18
3C
66
00
7C
C6
C6
C0
C0
C0
C6
C6
7C
ENDCHAR
STARTCHAR Cdotaccent
ENCODING 266
SWIDTH 444 0
DWIDTH 8 0
BBX 7 15 0 0
BITMAP
18
18
00
3C
66
C6
C0
C0
C0
C0
C0
C0
C6
66
3C
ENDCHAR
STARTCHAR cdotaccent
ENCODING 267
SWIDTH 444 0
DWIDTH 8 0
BBX 7 12 0 0
BITMAP
18
18
00
7C
C6
C6
C0
C0
C0
C6
C6
7C
ENDCHAR
STARTCHAR Ebreve
ENCODING 276
SWIDTH 444 0
DWIDTH 8 0
BBX 7 16 0 0
BITMAP
C6
6C
38
00
FE
C0
C0
C0
C0
FC
C0
C0
C0
C0
C0
FE
ENDCHAR
STARTCHAR ebreve
ENCODING 277
SWIDTH 444 0
DWIDTH 8 0
BBX 7 13 0 0
BITMAP
C6
6C
38
00
7C
C6
C6
C6
FC
C0
C2
C6
7C
ENDCHAR
STARTCHAR Gcircumflex
ENCODING 284
SWIDTH 500 0
DWIDTH 9 0
BBX 8 16 0 0
BITMAP
18
3C
66
00
3E
63
C3
C0
C0
C0
CF
C3
C3
C3
67
3E
ENDCHAR
STARTCHAR gcircumflex
ENCODING 285
SWIDTH 444 0
DWIDTH 8 0
BBX 7 16 0 -3
BITMAP
30
78
CC
00
7C
C6
C6
C6
C6
C6
C6
C6
7E
06
0E
7C
ENDCHAR
STARTCHAR Gdotaccent
ENCODING 288
SWIDTH 500 0
DWIDTH 9 0
BBX 8 15 0 0
BITMAP
18
18
00
3E
63
C3
C0
C0
C0
CF
C3
C3
C3
67
3E
ENDCHAR
STARTCHAR gdotaccent
ENCODING 289
SWIDTH 444 0
DWIDTH 8 0
BBX 7 15 0 -3
BITMAP
30
30
00
7C
C6
C6
C6
C6
C6
C6
C6
7E
06
0E
7C
ENDCHAR
STARTCHAR Hcircumflex
ENCODING 292
SWIDTH 500 0
DWIDTH 9 0
BBX 8 16 0 0
BITMAP
18
3C
66
00
C3
C3
C3
C3
C3
FF
C3
C3
C3
C3
C3
C3
ENDCHAR
STARTCHAR hcircumflex
ENCODING 293
SWIDTH 444 0
DWIDTH 8 0
BBX 7 16 0 0
BITMAP
30
78
CC
00
C0
C0
C0
FC
C6
C6
C6
C6
C6
C6
C6
C6
ENDCHAR
STARTCHAR Hbar
ENCODING 294
SWIDTH 500 0
DWIDTH 9 0
BBX 8 12 0 0
BITMAP
C3
C3
FF
C3
C3
FF
C3
C3
C3
C3
C3
C3
ENDCHAR
STARTCHAR hbar
ENCODING 295
SWIDTH 500 0
DWIDTH 9 0
BBX 8 13 0 0
BITMAP
60
60
F0
60
7E
63
63
63
63
63
63
63
63
ENDCHAR
STARTCHAR Itilde
ENCODING 296
SWIDTH 444 0
DWIDTH 8 0
BBX 7 15 0 0
BITMAP
76
DC
00
30
30
30
30
30
30
30
30
30
30
30
30
ENDCHAR
STARTCHAR itilde
ENCODING 297
SWIDTH 444 0
DWIDTH 8 0
BBX 7 12 0 0
BITMAP
76
DC
00
30
30
30
30
30
30
30
30
30
ENDCHAR
STARTCHAR IJ
ENCODING 306
SWIDTH 611 0
DWIDTH 11 0
BBX 10 12 0 0
BITMAP
C0C0
C0C0
C0C0
C0C0
C0C0
C0C0
C0C0
C0C0
D8C0
D8C0
D8C0
CF80
ENDCHAR
STARTCHAR ij
ENCODING 307
SWIDTH 333 0
DWIDTH 6 0
BBX 5 15 0 -3
BITMAP
D8
D8
00
D8
D8
D8
D8
D8
D8
D8
D8
D8
18
18
30
ENDCHAR
STARTCHAR Jcircumflex
ENCODING 308
SWIDTH 500 0
DWIDTH 9 0
BBX 8 16 0 0
BITMAP
0C
1E
33
00
06
06
06
06
06
06
06
06
C6
C6
C6
7C
ENDCHAR
STARTCHAR jcircumflex
ENCODING 309
SWIDTH 389 0
DWIDTH 7 0
BBX 6 16 0 -3
BITMAP
30
78
CC
00
30
30
30
30
30
30
30
30
30
30
30
60
ENDCHAR
STARTCHAR Ldot
ENCODING 319
SWIDTH 444 0
DWIDTH 8 0
BBX 7 12 0 0
BITMAP
C0
C0
C0
C0
C0
C0
CC
CC
C0
C0
C0
FE
ENDCHAR
STARTCHAR ldot
ENCODING 320
SWIDTH 333 0
DWIDTH 6 0
BBX 5 12 0 0
BITMAP
C0
C0
C0
C0
C0
C0
D8
D8
C0
C0
C0
C0
ENDCHAR
STARTCHAR napostrophe
ENCODING 329
SWIDTH 500 0
DWIDTH 9 0
BBX 8 14 0 0
BITMAP
C0
C0
40
40
80
3E
77
63
63
63
63
63
63
63
ENDCHAR
STARTCHAR Obreve
ENCODING 334
SWIDTH 500 0
DWIDTH 9 0
BBX 8 16 0 0
BITMAP
C6
6C
38
00
3C
66
C3
C3
C3
C3
C3
C3
C3
C3
66
3C
ENDCHAR
STARTCHAR obreve
ENCODING 335
SWIDTH 444 0
DWIDTH 8 0
BBX 7 13 0 0
BITMAP
C6
6C
38
00
7C
C6
C6
C6
C6
C6
C6
C6
7C
ENDCHAR
STARTCHAR Scircumflex
ENCODING 348
SWIDTH 444 0
DWIDTH 8 0
BBX 7 16 0 0
BITMAP
18
3C
66
00
7C
C6
C6
C0
60
38
0C
06
06
C6
C6
7C
ENDCHAR
STARTCHAR scircumflex
ENCODING 349
SWIDTH 444 0
DWIDTH 8 0
BBX 7 13 0 0
BITMAP
30
78
CC
00
7C
C6
C0
C0
7C
06
C6
C6
7C
ENDCHAR
STARTCHAR Tbar
ENCODING 358
SWIDTH 500 0
DWIDTH 9 0
BBX 8 12 0 0
BITMAP
FF
18
18
18
18
7E
18
18
18
18
18
18
ENDCHAR
STARTCHAR tbar
ENCODING 359
SWIDTH 278 0
DWIDTH 5 0
BBX 4 11 0 0
BITMAP
60
60
F0
60
60
F0
60
60
60
60
30
ENDCHAR
STARTCHAR Utilde
ENCODING 360
SWIDTH 556 0
DWIDTH 10 0
BBX 9 15 0 0
BITMAP
3B00
6E00
0000
C180
C180
C180
C180
C180
C180
C180
C180
C180
C180
C180
7F00
ENDCHAR
STARTCHAR utilde
ENCODING 361
SWIDTH 444 0
DWIDTH 8 0
BBX 7 12 0 0
BITMAP
76
DC
00
C6
C6
C6
C6
C6
C6
C6
C6
7C
ENDCHAR
STARTCHAR Ubreve
ENCODING 364
SWIDTH 556 0
DWIDTH 10 0
BBX 9 16 0 0
BITMAP
6300
3600
1C00
0000
C180
C180
C180
C180
C180
C180
C180
C180
C180
C180
C180
7F00
ENDCHAR
STARTCHAR ubreve
ENCODING 365
SWIDTH 444 0
DWIDTH 8 0
BBX 7 13 0 0
BITMAP
C6
6C
38
00
C6
C6
C6
C6
C6
C6
C6
C6
7C
ENDCHAR
STARTCHAR Wcircumflex
ENCODING 372
SWIDTH 778 0
DWIDTH 14 0
BBX 13 16 0 0
BITMAP
0300
0780
0CC0
0000
C718
C718
C718
6530
6530
6DB0
6DB0
6DB0
28A0
38E0
38E0
18C0
ENDCHAR
STARTCHAR wcircumflex
ENCODING 373
SWIDTH 667 0
DWIDTH 12 0
BBX 11 13 0 0
BITMAP
0600
0F00
1980
0000
C060
C460
CE60
6EC0
6EC0
6AC0
3B80
3B80
1100
ENDCHAR
STARTCHAR Ycircumflex
ENCODING 374
SWIDTH 500 0
DWIDTH 9 0
BBX 8 16 0 0
BITMAP
18
3C
66
00
C3
C3
66
66
24
3C
18
18
18
18
18
18
ENDCHAR
STARTCHAR ycircumflex
ENCODING 375
SWIDTH 444 0
DWIDTH 8 0
BBX 7 16 0 -3
BITMAP
18
3C
66
00
C6
C6
C6
C6
C6
C6
C6
C6
7E
06
0E
38
ENDCHAR
STARTCHAR Scommaaccent
ENCODING 536
SWIDTH 444 0
DWIDTH 8 0
BBX 7 15 0 -3
BITMAP
7C
C6
C6
C0
60
38
0C
06
06
C6
C6
7C
00
30
60
ENDCHAR
STARTCHAR scommaaccent
ENCODING 537
SWIDTH 444 0
DWIDTH 8 0
BBX 7 12 0 -3
BITMAP
7C
C6
C0
C0
7C
06
C6
C6
7C
00
30
60
ENDCHAR
STARTCHAR uni021A
ENCODING 538
SWIDTH 500 0
DWIDTH 9 0
BBX 8 15 0 -3
BITMAP
FF
18
18
18
18
18
18
18
18
18
18
18
00
18
30
ENDCHAR
STARTCHAR uni021B
ENCODING 539
SWIDTH 278 0
DWIDTH 5 0
BBX 4 14 0 -3
BITMAP
60
60
F0
60
60
60
60
60
60
60
30
00
60
C0
ENDCHAR
STARTCHAR afii61289
ENCODING 8467
SWIDTH 444 0
DWIDTH 8 0
BBX 7 13 0 0
BITMAP
3C
66
66
66
66
6C
78
70
E0
E0
60
60
3C
ENDCHAR
STARTCHAR estimated
ENCODING 8494
SWIDTH 556 0
DWIDTH 10 0
BBX 9 10 0 0
BITMAP
1C00
6300
6180
E180
E180
FF80
E000
E000
6100
3E00
ENDCHAR
STARTCHAR product
ENCODING 8719
SWIDTH 667 0
DWIDTH 12 0
BBX 11 17 0 -3
BITMAP
FFE0
C060
C060
C060
C060
C060
C060
C060
C060
C060
C060
C060
C060
C060
C060
C060
C060
ENDCHAR
STARTCHAR summation
ENCODING 8721
SWIDTH 615 0
DWIDTH 11 0
BBX 11 18 0 -3
BITMAP
FFC0
C000
C000
6000
3000
1800
0C00
0600
0300
0300
0600
0C00
1800
3000
6000
C000
C000
FFE0
ENDCHAR
STARTCHAR minus
ENCODING 8722
SWIDTH 611 0
DWIDTH 11 0
BBX 9 1 1 4
BITMAP
FF80
ENDCHAR
STARTCHAR integral
ENCODING 8747
SWIDTH 554 0
DWIDTH 9 0
BBX 5 18 2 -3
BITMAP
18
30
30
30
30
30
30
30
30
30
30
30
30
30
30
30
F0
60
ENDCHAR
STARTCHAR lozenge
ENCODING 9674
SWIDTH 611 0
DWIDTH 11 0
BBX 10 11 0 1
BITMAP
0C00
1E00
3300
6180
C0C0
8040
C0C0
6180
3300
1E00
0C00
ENDCHAR
STARTCHAR uniF8FF
ENCODING 63743
SWIDTH 611 0
DWIDTH 11 0
BBX 9 13 1 0
BITMAP
FF80
8080
9C80
B280
A280
8280
8480
8880
8880
8080
8880
8080
FF80
ENDCHAR
STARTCHAR Euro
ENCODING 8364
SWIDTH 500 0
DWIDTH 9 0
BBX 8 12 0 0
BITMAP
1E
33
63
60
FC
60
FC
60
60
63
33
1E
ENDCHAR
STARTCHAR Delta
ENCODING 8710
SWIDTH 1389 0
DWIDTH 25 0
BBX 9 12 8 0
BITMAP
0800
1C00
1400
3600
3600
2200
6300
6300
4100
C180
C180
FF80
ENDCHAR
ENDFONT
